<svg id="svg" version="1.1" xmlns="http://www.w3.org/2000/svg" xmlns:xlink="http://www.w3.org/1999/xlink" width="400" height="120.43010752688171" viewBox="0, 0, 400,120.43010752688171"><g id="svgg"><path id="path0" d="M11.833 18.750 L 11.833 19.667 12.833 19.667 C 13.965 19.667,14.042 19.540,13.581 18.437 C 13.344 17.870,13.283 17.833,12.581 17.833 L 11.833 17.833 11.833 18.750 M25.224 19.041 L 25.750 20.250 25.795 48.208 L 25.839 76.167 27.906 76.167 C 29.043 76.167,30.091 76.121,30.236 76.066 C 30.532 75.952,30.653 26.500,30.357 26.500 C 30.279 26.500,30.168 25.994,30.110 25.376 C 30.052 24.758,29.929 24.226,29.836 24.195 C 29.743 24.164,29.667 24.006,29.667 23.844 C 29.667 23.541,29.000 22.188,28.627 21.735 C 28.144 21.148,26.941 20.000,26.809 20.000 C 26.731 20.000,26.667 19.925,26.667 19.834 C 26.667 19.726,31.393 19.654,40.266 19.626 L 53.866 19.583 53.291 18.750 L 52.717 17.917 38.708 17.874 L 24.698 17.831 25.224 19.041 M58.167 21.236 C 58.167 23.108,58.228 24.664,58.303 24.694 C 58.378 24.725,58.767 25.219,59.169 25.792 C 59.570 26.365,59.959 26.833,60.033 26.833 C 60.106 26.833,60.167 26.948,60.167 27.089 C 60.167 27.229,60.276 27.386,60.410 27.437 C 60.544 27.489,60.697 27.665,60.749 27.829 C 60.832 28.090,60.968 28.284,61.641 29.094 C 61.722 29.191,61.876 29.435,61.983 29.635 C 62.601 30.790,62.667 30.242,62.667 23.917 L 62.667 17.833 60.417 17.833 L 58.167 17.833 58.167 21.236 M81.366 18.708 L 81.417 19.583 82.625 19.632 C 83.975 19.687,84.072 19.567,83.650 18.358 C 83.471 17.843,83.448 17.833,82.392 17.833 L 81.316 17.833 81.366 18.708 M151.333 18.667 L 151.333 19.500 152.518 19.500 C 153.476 19.500,153.685 19.455,153.611 19.262 C 153.561 19.131,153.469 18.756,153.408 18.429 L 153.296 17.833 152.315 17.833 L 151.333 17.833 151.333 18.667 M164.721 18.125 C 164.773 18.285,165.004 18.942,165.234 19.583 C 165.652 20.748,165.653 20.760,165.660 26.922 L 165.667 33.094 166.458 33.937 C 166.894 34.400,167.587 35.173,168.000 35.653 C 170.553 38.626,170.355 38.965,170.286 31.737 C 170.232 26.239,170.132 24.926,169.698 24.050 C 168.946 22.532,168.741 22.167,168.640 22.167 C 168.575 22.167,168.470 21.998,168.406 21.792 C 168.341 21.585,167.837 20.985,167.286 20.458 L 166.282 19.500 171.725 19.500 L 177.167 19.500 177.167 18.667 L 177.167 17.833 170.897 17.833 C 165.002 17.833,164.633 17.851,164.721 18.125 M196.033 18.708 L 196.083 19.583 198.230 19.630 C 200.096 19.671,200.434 19.721,200.810 20.017 C 201.519 20.575,201.423 20.071,200.640 19.124 C 199.570 17.829,199.606 17.845,197.700 17.839 L 195.983 17.833 196.033 18.708 M216.925 18.625 C 217.167 20.322,218.063 22.489,219.321 24.417 C 219.740 25.058,220.121 25.658,220.166 25.750 C 220.284 25.985,220.892 26.900,220.996 27.000 C 221.081 27.081,222.777 29.585,224.034 31.484 C 224.373 31.997,224.711 32.492,224.784 32.584 C 224.857 32.675,225.770 34.025,226.814 35.584 C 227.857 37.142,228.770 38.482,228.841 38.561 C 229.021 38.760,229.543 37.705,229.389 37.453 C 229.261 37.244,229.223 37.195,228.664 36.516 C 228.482 36.296,228.333 36.015,228.333 35.891 C 228.333 35.768,228.256 35.667,228.163 35.667 C 228.069 35.667,227.920 35.479,227.833 35.250 C 227.746 35.021,227.606 34.833,227.522 34.833 C 227.438 34.833,227.322 34.646,227.265 34.417 C 227.207 34.188,227.087 34.000,226.997 34.000 C 226.907 34.000,226.833 33.885,226.833 33.745 C 226.833 33.604,226.721 33.446,226.583 33.394 C 226.446 33.341,226.333 33.225,226.333 33.137 C 226.333 33.048,225.921 32.380,225.417 31.652 C 224.912 30.924,224.500 30.255,224.500 30.164 C 224.500 30.074,224.434 30.000,224.353 30.000 C 224.272 30.000,223.998 29.587,223.743 29.083 C 223.488 28.579,223.222 28.167,223.153 28.167 C 223.083 28.167,222.977 27.942,222.917 27.667 C 222.856 27.392,222.748 27.167,222.675 27.167 C 222.603 27.167,222.448 26.827,222.332 26.412 C 222.216 25.998,222.058 25.619,221.982 25.572 C 221.906 25.525,221.794 25.114,221.733 24.660 C 221.673 24.205,221.558 23.833,221.479 23.833 C 221.293 23.833,221.288 21.423,221.473 21.039 C 222.160 19.616,221.935 19.755,223.631 19.702 L 225.167 19.654 225.167 18.744 L 225.167 17.833 220.990 17.833 L 216.813 17.833 216.925 18.625 M245.912 18.048 C 244.974 19.155,245.000 19.008,245.000 23.276 L 245.000 27.251 244.408 28.084 C 243.521 29.333,243.278 29.661,242.963 30.033 C 242.806 30.220,242.634 30.507,242.582 30.671 C 242.530 30.835,242.378 31.011,242.244 31.063 C 242.110 31.114,242.000 31.263,242.000 31.394 C 242.000 31.524,241.887 31.674,241.750 31.727 C 241.612 31.780,241.500 31.938,241.500 32.078 C 241.500 32.218,241.430 32.333,241.345 32.333 C 241.259 32.333,241.144 32.474,241.090 32.647 C 241.035 32.819,240.844 33.138,240.665 33.355 C 240.486 33.572,240.282 33.826,240.211 33.918 C 240.141 34.011,239.815 34.424,239.488 34.835 C 239.160 35.247,238.844 35.715,238.785 35.875 C 238.726 36.035,238.600 36.167,238.505 36.167 C 238.411 36.167,238.333 36.235,238.333 36.318 C 238.333 36.549,237.460 37.833,237.304 37.833 C 237.228 37.833,237.167 37.934,237.167 38.058 C 237.167 38.181,237.017 38.417,236.833 38.583 C 236.650 38.749,236.500 38.944,236.500 39.016 C 236.500 39.087,236.275 39.393,235.999 39.694 C 235.724 39.996,235.452 40.387,235.396 40.564 C 235.340 40.741,235.116 41.051,234.897 41.253 C 234.679 41.456,234.500 41.703,234.500 41.802 C 234.500 41.902,234.406 42.043,234.291 42.117 C 234.177 42.190,233.976 42.456,233.847 42.708 C 233.519 43.344,233.084 43.241,232.788 42.458 C 232.727 42.298,232.600 42.167,232.505 42.167 C 232.411 42.167,232.333 42.052,232.333 41.911 C 232.333 41.771,232.221 41.613,232.083 41.560 C 231.946 41.508,231.833 41.389,231.833 41.297 C 231.833 40.988,230.780 39.500,230.561 39.500 C 230.095 39.500,229.944 40.176,230.302 40.660 C 230.487 40.910,230.963 41.580,231.361 42.150 C 237.281 50.635,241.096 56.216,246.296 64.000 C 248.102 66.704,249.637 68.992,249.707 69.083 C 252.706 73.028,254.365 74.915,255.225 75.357 L 255.583 75.541 255.221 75.193 C 255.022 75.001,254.811 74.692,254.752 74.506 C 254.693 74.319,254.574 74.167,254.489 74.167 C 254.403 74.167,254.333 74.071,254.333 73.954 C 254.333 73.837,254.183 73.612,254.000 73.455 C 253.817 73.298,253.667 73.057,253.667 72.918 C 253.667 72.780,253.590 72.667,253.496 72.667 C 253.402 72.667,253.254 72.479,253.167 72.250 C 253.080 72.021,252.931 71.833,252.837 71.833 C 252.744 71.833,252.667 71.732,252.667 71.609 C 252.667 71.411,252.514 71.186,251.836 70.382 C 251.743 70.271,251.665 70.121,251.663 70.049 C 251.661 69.976,251.268 69.376,250.788 68.716 C 250.309 68.056,249.617 67.026,249.250 66.428 C 248.883 65.830,248.527 65.339,248.458 65.337 C 248.390 65.335,248.333 65.218,248.333 65.078 C 248.333 64.938,248.221 64.780,248.083 64.727 C 247.946 64.674,247.833 64.541,247.833 64.430 C 247.833 64.320,247.683 64.069,247.500 63.872 C 247.317 63.675,247.167 63.466,247.167 63.408 C 247.167 63.350,247.035 63.131,246.875 62.921 C 246.715 62.710,246.491 62.399,246.378 62.228 C 246.265 62.057,245.984 61.632,245.753 61.284 C 245.522 60.936,245.333 60.615,245.333 60.569 C 245.333 60.523,245.257 60.395,245.164 60.285 C 244.509 59.508,244.332 59.257,244.244 58.980 C 244.189 58.808,244.074 58.667,243.989 58.667 C 243.903 58.667,243.833 58.566,243.833 58.442 C 243.833 58.319,243.683 58.083,243.500 57.917 C 243.317 57.751,243.167 57.522,243.167 57.409 C 243.167 57.295,243.054 57.159,242.917 57.106 C 242.779 57.054,242.667 56.896,242.667 56.755 C 242.667 56.615,242.597 56.500,242.511 56.500 C 242.426 56.500,242.311 56.359,242.256 56.186 C 242.202 56.014,242.028 55.721,241.870 55.535 C 241.712 55.350,241.471 55.034,241.333 54.833 C 241.196 54.633,240.952 54.314,240.792 54.126 C 240.631 53.937,240.500 53.679,240.500 53.553 C 240.500 53.426,240.387 53.280,240.250 53.227 C 240.112 53.174,240.000 53.024,240.000 52.894 C 240.000 52.763,239.887 52.613,239.750 52.560 C 239.612 52.508,239.500 52.375,239.500 52.266 C 239.500 52.063,239.141 51.535,238.625 50.980 C 238.465 50.808,238.333 50.603,238.333 50.526 C 238.333 50.448,238.185 50.204,238.003 49.984 C 237.485 49.355,237.431 49.277,237.192 48.814 C 237.069 48.575,236.803 48.200,236.600 47.981 C 236.398 47.762,236.183 47.452,236.122 47.292 C 236.060 47.131,235.933 47.000,235.839 47.000 C 235.744 47.000,235.667 46.899,235.667 46.776 C 235.667 46.653,235.517 46.416,235.333 46.250 C 235.150 46.084,235.000 45.845,235.000 45.719 C 235.000 45.593,234.887 45.446,234.750 45.394 C 234.484 45.292,234.399 44.833,234.646 44.833 C 234.727 44.833,234.886 44.608,235.000 44.333 C 235.114 44.058,235.257 43.833,235.318 43.833 C 235.378 43.833,235.550 43.627,235.699 43.375 C 235.849 43.123,236.126 42.729,236.316 42.500 C 236.810 41.903,236.863 41.831,237.417 41.000 C 238.017 40.100,238.059 40.044,238.586 39.450 C 238.814 39.193,239.000 38.882,239.000 38.759 C 239.000 38.636,239.112 38.492,239.250 38.440 C 239.387 38.387,239.500 38.229,239.500 38.089 C 239.500 37.948,239.573 37.833,239.662 37.833 C 239.752 37.833,239.935 37.627,240.069 37.375 C 240.204 37.123,240.506 36.699,240.740 36.432 C 240.975 36.166,241.168 35.904,241.169 35.849 C 241.171 35.795,241.396 35.496,241.669 35.186 C 241.943 34.875,242.167 34.568,242.167 34.503 C 242.167 34.438,242.298 34.230,242.458 34.041 C 242.619 33.852,242.862 33.533,243.000 33.332 C 243.137 33.131,243.625 32.456,244.083 31.833 C 244.542 31.210,245.029 30.531,245.167 30.324 C 245.304 30.117,245.548 29.831,245.708 29.687 C 245.869 29.543,246.000 29.365,246.000 29.290 C 246.000 29.099,246.706 28.111,246.958 27.950 C 247.073 27.877,247.167 27.708,247.167 27.575 C 247.167 27.442,247.229 27.333,247.305 27.333 C 247.381 27.333,247.550 27.127,247.680 26.875 C 247.932 26.387,247.983 26.313,248.511 25.674 C 248.696 25.449,249.011 24.999,249.211 24.674 C 249.410 24.349,249.705 23.940,249.866 23.764 C 250.028 23.588,250.366 23.138,250.618 22.764 C 250.870 22.390,251.303 21.773,251.580 21.394 C 251.857 21.015,252.196 20.539,252.333 20.337 C 252.471 20.135,252.715 19.814,252.875 19.626 C 253.035 19.437,253.167 19.230,253.167 19.167 C 253.167 19.103,253.317 18.878,253.500 18.667 C 254.207 17.851,254.129 17.833,249.958 17.840 C 247.135 17.844,246.037 17.901,245.912 18.048 M284.500 18.667 L 284.500 19.500 285.583 19.500 C 286.768 19.500,286.778 19.489,286.491 18.458 C 286.318 17.834,286.317 17.833,285.409 17.833 L 284.500 17.833 284.500 18.667 M297.667 17.918 C 297.667 17.965,297.816 18.322,297.998 18.710 C 298.664 20.130,298.733 20.885,298.776 27.142 L 298.818 33.201 299.367 33.751 C 299.669 34.054,300.084 34.515,300.288 34.775 C 300.492 35.036,300.867 35.483,301.121 35.768 C 301.375 36.053,301.879 36.635,302.241 37.060 C 303.393 38.415,303.361 38.582,303.302 31.525 C 303.266 27.195,303.192 25.144,303.063 24.984 C 302.961 24.855,302.827 24.474,302.766 24.137 C 302.706 23.800,302.602 23.500,302.536 23.470 C 302.471 23.441,302.229 23.045,302.000 22.591 C 301.771 22.137,301.108 21.274,300.526 20.674 L 299.470 19.583 304.860 19.500 L 310.250 19.417 310.301 18.625 L 310.352 17.833 304.009 17.833 C 300.521 17.833,297.667 17.872,297.667 17.918 M329.167 18.750 L 329.167 19.667 330.339 19.667 C 331.694 19.667,331.837 19.521,331.496 18.488 L 331.280 17.833 330.223 17.833 L 329.167 17.833 329.167 18.750 M95.167 19.062 C 95.167 19.097,95.298 19.453,95.458 19.854 C 95.731 20.537,95.753 22.358,95.795 48.375 L 95.841 76.167 97.907 76.167 C 99.043 76.167,100.091 76.121,100.236 76.066 C 100.554 75.944,100.651 27.333,100.333 27.333 C 100.242 27.333,100.166 26.902,100.166 26.375 C 100.164 25.095,99.626 23.222,99.147 22.833 C 99.091 22.787,98.993 22.582,98.929 22.377 C 98.646 21.471,95.167 18.406,95.167 19.062 M343.169 19.208 C 343.170 19.323,343.300 19.754,343.458 20.167 C 343.718 20.847,343.749 22.095,343.799 33.630 L 343.854 46.343 346.052 46.296 L 348.250 46.250 348.295 36.083 C 348.322 29.968,348.277 25.784,348.183 25.583 C 348.097 25.400,347.980 25.025,347.924 24.750 C 347.806 24.174,347.346 23.191,347.042 22.866 C 346.927 22.743,346.833 22.567,346.833 22.474 C 346.833 22.038,344.989 20.064,343.962 19.401 C 343.249 18.942,343.166 18.921,343.169 19.208 M376.000 25.279 C 376.000 25.452,376.112 26.004,376.250 26.505 C 376.590 27.746,376.753 31.781,376.521 33.250 C 376.216 35.188,375.983 36.241,375.821 36.408 C 375.736 36.495,375.667 36.706,375.667 36.875 C 375.667 38.926,371.804 43.304,368.636 44.843 C 368.211 45.050,367.778 45.376,367.675 45.568 C 366.988 46.841,366.722 47.232,366.125 47.840 C 365.520 48.457,365.539 48.515,366.506 48.986 C 366.961 49.207,367.333 49.446,367.333 49.516 C 367.333 49.587,367.465 49.688,367.625 49.743 C 367.785 49.797,368.254 50.143,368.667 50.513 C 369.400 51.169,370.345 51.325,370.666 50.844 C 370.712 50.775,370.975 50.664,371.250 50.598 C 371.714 50.487,374.145 49.357,374.333 49.165 C 374.379 49.118,374.717 48.885,375.083 48.647 C 375.873 48.134,376.743 47.406,377.232 46.850 C 377.425 46.630,377.752 46.262,377.958 46.034 C 378.165 45.805,378.333 45.516,378.333 45.392 C 378.333 45.268,378.411 45.167,378.505 45.167 C 378.600 45.167,378.727 45.035,378.788 44.875 C 378.848 44.715,379.000 44.481,379.124 44.355 C 379.248 44.229,379.393 43.911,379.446 43.647 C 379.498 43.383,379.607 43.167,379.688 43.167 C 379.768 43.167,379.834 43.073,379.834 42.958 C 379.835 42.844,379.945 42.541,380.078 42.285 C 380.212 42.029,380.371 41.541,380.432 41.201 C 380.494 40.861,380.610 40.454,380.692 40.296 C 381.177 39.357,381.191 31.864,380.710 31.108 C 380.643 31.003,380.583 30.879,380.576 30.833 C 380.442 29.930,380.273 29.333,380.152 29.333 C 380.068 29.333,380.000 29.215,380.000 29.071 C 380.000 28.382,378.665 26.681,377.104 25.382 C 376.632 24.989,376.000 24.930,376.000 25.279 M158.842 38.855 C 159.041 39.229,159.956 40.418,160.500 41.007 C 160.637 41.156,161.050 41.642,161.417 42.087 C 161.783 42.533,162.308 43.163,162.583 43.488 C 162.858 43.814,163.158 44.178,163.250 44.298 C 163.342 44.418,163.533 44.644,163.676 44.800 C 163.819 44.956,164.325 45.539,164.801 46.096 L 165.667 47.109 165.667 61.643 L 165.667 76.176 167.958 76.130 L 170.250 76.083 170.293 64.051 L 170.336 52.019 169.626 51.267 C 169.236 50.854,168.804 50.353,168.667 50.154 C 168.412 49.786,167.619 48.827,167.167 48.342 C 167.029 48.195,166.579 47.666,166.167 47.167 C 165.754 46.668,165.304 46.138,165.167 45.991 C 165.029 45.843,164.617 45.359,164.250 44.915 C 163.883 44.471,163.427 43.936,163.235 43.725 C 163.044 43.515,162.744 43.144,162.568 42.901 C 162.393 42.658,162.006 42.217,161.708 41.921 C 161.410 41.625,161.167 41.323,161.167 41.249 C 161.167 41.176,160.792 40.719,160.333 40.234 C 159.875 39.750,159.498 39.293,159.495 39.218 C 159.492 39.144,159.297 38.943,159.061 38.771 L 158.633 38.459 158.842 38.855 M291.833 38.762 C 291.833 38.879,292.784 40.150,293.071 40.417 C 293.169 40.508,293.523 40.921,293.856 41.333 C 294.190 41.746,294.602 42.248,294.773 42.448 C 294.944 42.649,295.346 43.130,295.667 43.516 C 295.987 43.902,296.325 44.301,296.417 44.401 C 296.509 44.501,296.922 44.996,297.334 45.500 C 297.746 46.004,298.252 46.603,298.458 46.832 L 298.833 47.247 298.833 61.707 L 298.833 76.167 301.083 76.167 L 303.333 76.167 303.333 64.106 L 303.333 52.045 302.961 51.572 C 302.757 51.312,302.400 50.891,302.170 50.638 C 301.939 50.384,301.375 49.714,300.917 49.147 C 300.458 48.581,299.840 47.873,299.542 47.573 C 299.244 47.273,299.000 46.950,299.000 46.856 C 299.000 46.761,298.906 46.623,298.792 46.550 C 298.574 46.411,297.828 45.569,296.833 44.341 C 296.189 43.546,295.436 42.658,294.902 42.063 C 294.710 41.850,294.410 41.481,294.235 41.243 C 294.060 41.006,293.598 40.471,293.208 40.055 C 292.819 39.639,292.500 39.234,292.500 39.155 C 292.500 39.076,292.350 38.931,292.167 38.833 C 291.983 38.735,291.833 38.703,291.833 38.762 M53.244 42.159 C 53.058 42.234,52.805 42.417,52.682 42.565 C 52.560 42.712,52.383 42.833,52.290 42.833 C 52.198 42.833,51.962 43.002,51.768 43.208 C 51.573 43.415,51.227 43.680,50.999 43.798 C 50.770 43.916,50.340 44.226,50.042 44.487 L 49.500 44.961 49.500 49.744 L 49.500 54.527 48.875 54.147 C 48.352 53.828,44.308 50.849,43.740 50.363 C 43.068 49.790,42.664 49.736,42.180 50.155 C 41.772 50.509,41.930 51.167,42.423 51.167 C 42.557 51.167,42.667 51.229,42.667 51.305 C 42.667 51.381,43.023 51.678,43.458 51.964 C 43.894 52.250,44.454 52.656,44.702 52.867 C 45.725 53.733,46.094 53.996,46.292 53.998 C 46.406 53.999,46.500 54.069,46.500 54.153 C 46.500 54.237,46.756 54.465,47.069 54.658 C 47.383 54.852,48.463 55.626,49.470 56.380 C 50.477 57.133,51.465 57.862,51.666 58.000 C 52.140 58.325,52.683 58.759,53.011 59.075 C 53.154 59.213,53.454 59.347,53.677 59.371 L 54.083 59.417 54.126 50.708 C 54.174 41.150,54.236 41.756,53.244 42.159 M343.835 57.958 C 343.837 67.551,344.021 71.605,344.495 72.491 C 344.590 72.667,344.667 72.933,344.667 73.082 C 344.667 73.418,345.243 74.697,345.772 75.536 L 346.171 76.167 347.438 76.167 L 348.706 76.167 348.586 75.708 C 348.520 75.456,348.429 70.288,348.384 64.222 L 348.302 53.195 351.609 53.284 C 353.428 53.334,354.988 53.440,355.075 53.520 C 355.162 53.601,355.462 53.668,355.742 53.669 C 356.484 53.672,357.821 54.059,358.821 54.561 C 360.200 55.254,360.354 55.076,359.458 53.827 C 357.336 50.869,357.661 50.996,352.537 51.119 L 348.333 51.219 348.333 49.776 L 348.333 48.333 346.083 48.333 L 343.833 48.333 343.835 57.958 M372.005 54.403 C 372.002 54.488,372.440 55.463,372.977 56.570 C 374.080 58.841,374.298 59.335,374.830 60.750 C 375.037 61.300,375.262 61.865,375.332 62.005 C 375.401 62.146,375.514 62.519,375.583 62.833 C 375.652 63.148,375.770 63.521,375.845 63.661 C 376.019 63.988,376.667 66.161,376.667 66.417 C 376.667 66.695,377.322 68.822,377.599 69.442 C 377.728 69.731,377.833 70.018,377.833 70.079 C 377.833 70.889,381.295 74.667,382.037 74.667 C 382.212 74.667,382.031 73.632,381.833 73.500 C 381.764 73.454,381.654 73.098,381.589 72.708 C 381.524 72.319,381.412 72.000,381.340 72.000 C 381.268 72.000,381.162 71.639,381.103 71.198 C 381.045 70.757,380.848 69.971,380.665 69.452 C 380.483 68.933,380.333 68.361,380.333 68.181 C 380.333 68.000,380.265 67.811,380.181 67.759 C 380.097 67.707,379.978 67.365,379.917 66.999 C 379.855 66.633,379.745 66.333,379.672 66.333 C 379.599 66.333,379.456 66.000,379.353 65.593 C 379.251 65.186,379.092 64.807,379.000 64.750 C 378.908 64.693,378.833 64.469,378.833 64.252 C 378.833 64.035,378.721 63.745,378.583 63.607 C 378.446 63.470,378.331 63.296,378.328 63.220 C 378.325 63.145,378.177 62.783,378.000 62.417 C 377.823 62.050,377.675 61.685,377.672 61.606 C 377.665 61.417,375.994 58.645,375.716 58.363 C 375.597 58.242,375.500 58.066,375.500 57.973 C 375.500 57.880,375.294 57.572,375.042 57.290 C 373.657 55.738,372.764 54.833,372.618 54.833 C 372.527 54.833,372.354 54.702,372.232 54.542 C 372.110 54.381,372.008 54.319,372.005 54.403 M60.946 63.125 C 60.905 63.194,60.817 63.663,60.750 64.167 C 60.684 64.671,60.571 65.158,60.501 65.250 C 60.430 65.342,60.321 65.679,60.260 66.000 C 60.198 66.321,60.081 66.733,59.999 66.917 C 59.354 68.371,59.167 68.838,59.167 68.991 C 59.167 69.088,59.098 69.167,59.013 69.167 C 58.929 69.167,58.810 69.391,58.750 69.666 C 58.690 69.940,58.535 70.224,58.407 70.295 C 58.219 70.400,58.164 71.167,58.128 74.171 L 58.083 77.917 53.750 78.000 C 50.034 78.072,49.345 78.125,48.917 78.374 C 48.642 78.534,48.323 78.665,48.208 78.666 C 48.094 78.666,48.000 78.731,48.000 78.811 C 48.000 78.890,47.550 79.050,47.000 79.167 C 46.450 79.283,46.000 79.434,46.000 79.501 C 46.000 79.569,45.628 79.673,45.174 79.733 C 44.719 79.794,44.306 79.909,44.256 79.991 C 44.206 80.072,43.584 80.187,42.874 80.246 C 42.164 80.306,41.433 80.421,41.250 80.502 C 40.786 80.707,35.904 81.000,32.954 81.000 L 30.500 81.000 30.500 79.498 L 30.500 77.996 24.130 78.040 L 17.760 78.083 17.452 78.914 C 17.282 79.371,17.084 79.783,17.011 79.831 C 16.938 79.878,16.829 80.073,16.770 80.265 C 16.590 80.840,16.016 80.997,13.917 81.041 L 11.917 81.083 11.867 82.042 L 11.817 83.000 37.242 83.000 L 62.667 83.000 62.667 73.000 L 62.667 63.000 61.843 63.000 C 61.390 63.000,60.986 63.056,60.946 63.125 M131.542 71.370 C 131.189 71.854,130.718 72.512,130.496 72.833 C 130.068 73.452,130.013 73.525,129.502 74.145 C 129.323 74.362,129.134 74.674,129.082 74.838 C 129.030 75.002,128.878 75.178,128.744 75.229 C 128.610 75.281,128.500 75.431,128.500 75.564 C 128.500 75.697,128.408 75.836,128.296 75.874 C 128.180 75.912,128.054 76.368,128.004 76.927 L 127.917 77.912 127.290 78.014 C 126.945 78.069,126.637 78.145,126.605 78.182 C 126.573 78.220,126.261 78.662,125.912 79.167 C 125.563 79.671,125.126 80.290,124.940 80.542 L 124.604 81.000 112.552 81.000 L 100.500 81.000 100.500 79.500 L 100.500 78.000 94.151 78.000 C 87.942 78.000,87.800 78.007,87.715 78.333 C 87.667 78.517,87.562 78.667,87.481 78.667 C 87.400 78.667,87.333 78.783,87.333 78.925 C 87.333 79.280,86.640 80.546,86.333 80.750 C 86.196 80.842,85.033 80.954,83.750 81.000 L 81.417 81.083 81.417 82.000 L 81.417 82.917 106.958 82.959 L 132.500 83.001 132.500 76.844 C 132.500 70.079,132.497 70.062,131.542 71.370 M207.208 70.750 C 206.869 71.135,206.722 70.897,210.862 76.694 C 211.778 77.977,211.997 77.911,206.637 77.961 L 201.857 78.005 201.479 78.628 C 201.271 78.970,201.053 79.287,200.993 79.333 C 200.898 79.407,200.588 79.840,199.263 81.750 C 199.073 82.025,198.860 82.275,198.792 82.306 C 198.723 82.336,198.667 82.505,198.667 82.681 C 198.667 82.991,198.905 83.000,207.417 83.000 C 216.056 83.000,216.167 82.996,216.167 82.667 C 216.167 82.483,216.110 82.333,216.042 82.333 C 215.973 82.333,215.695 81.977,215.424 81.541 C 215.153 81.106,214.890 80.712,214.841 80.667 C 214.791 80.621,214.566 80.321,214.341 80.000 C 214.116 79.679,213.870 79.342,213.794 79.250 C 213.719 79.158,213.361 78.671,213.000 78.167 C 212.639 77.662,212.266 77.159,212.172 77.049 C 212.077 76.938,212.000 76.799,212.000 76.739 C 212.000 76.647,211.723 76.272,210.997 75.382 C 210.907 75.271,210.833 75.106,210.833 75.015 C 210.833 74.924,210.740 74.790,210.625 74.717 C 210.376 74.557,209.771 73.701,209.619 73.292 C 209.559 73.131,209.433 73.000,209.339 73.000 C 209.244 73.000,209.167 72.899,209.167 72.776 C 209.167 72.653,209.017 72.416,208.833 72.250 C 208.650 72.084,208.500 71.847,208.500 71.724 C 208.500 71.601,208.429 71.500,208.342 71.500 C 208.256 71.500,208.087 71.299,207.967 71.054 C 207.707 70.519,207.489 70.432,207.208 70.750 M369.965 76.327 C 370.017 76.468,370.102 76.621,370.155 76.667 C 370.207 76.712,370.438 77.123,370.667 77.580 C 371.130 78.502,373.005 80.500,373.408 80.500 C 373.550 80.500,373.667 80.572,373.667 80.659 C 373.667 80.747,373.929 80.867,374.249 80.927 C 374.569 80.987,374.793 81.097,374.748 81.170 C 374.702 81.244,374.966 81.355,375.333 81.417 C 375.700 81.479,376.000 81.591,376.000 81.667 C 376.000 81.742,376.319 81.857,376.708 81.921 C 377.098 81.985,377.492 82.096,377.583 82.168 C 377.840 82.369,380.022 82.667,381.240 82.667 C 381.858 82.667,382.333 82.739,382.333 82.833 C 382.333 83.233,391.344 83.038,391.698 82.631 C 392.419 81.799,391.816 81.100,390.154 80.843 C 389.474 80.738,388.892 80.580,388.861 80.493 C 388.831 80.405,388.681 80.333,388.528 80.333 C 388.144 80.332,385.614 79.016,385.450 78.732 C 385.377 78.604,385.216 78.500,385.093 78.500 C 384.970 78.500,384.826 78.387,384.773 78.250 C 384.693 78.042,384.210 77.999,381.880 77.997 C 378.977 77.993,374.397 77.631,373.880 77.364 C 373.717 77.280,373.284 77.156,372.918 77.090 C 372.552 77.024,372.177 76.923,372.085 76.865 C 371.492 76.496,369.876 76.086,369.965 76.327 M157.569 78.220 C 157.469 78.334,157.332 78.650,157.264 78.921 C 157.196 79.192,157.089 79.452,157.027 79.498 C 156.965 79.545,156.708 79.900,156.458 80.287 L 156.002 80.991 153.709 81.037 L 151.417 81.083 151.367 82.042 L 151.317 83.000 164.242 83.000 L 177.167 83.000 177.167 82.000 L 177.167 81.000 173.750 81.000 L 170.333 81.000 170.333 79.500 L 170.333 78.000 164.042 78.006 C 159.235 78.011,157.707 78.062,157.569 78.220 M240.396 79.104 C 240.384 79.709,240.304 80.252,240.217 80.311 C 240.130 80.369,240.011 80.548,239.951 80.708 C 239.859 80.960,239.612 81.000,238.172 81.000 L 236.500 81.000 236.500 82.001 L 236.500 83.002 251.042 82.959 L 265.583 82.917 265.583 82.000 L 265.583 81.083 263.108 81.037 L 260.632 80.991 259.785 80.287 C 259.319 79.900,258.600 79.227,258.189 78.792 L 257.441 78.000 248.929 78.001 L 240.417 78.003 240.396 79.104 M290.075 79.350 C 289.258 81.027,289.313 81.000,286.678 81.000 L 284.500 81.000 284.500 82.000 L 284.500 83.000 297.425 83.000 L 310.350 83.000 310.300 82.042 L 310.250 81.083 306.792 81.038 L 303.333 80.993 303.333 79.497 L 303.333 78.000 297.033 78.000 L 290.733 78.000 290.075 79.350 M335.533 78.200 C 335.423 78.310,335.333 78.471,335.333 78.558 C 335.333 78.860,334.416 80.584,334.167 80.750 C 334.029 80.842,332.904 80.954,331.667 81.000 L 329.417 81.083 329.417 82.000 L 329.417 82.917 342.232 82.959 C 356.344 83.006,355.551 83.068,355.477 81.929 C 355.418 81.014,355.393 81.005,352.914 81.003 L 350.745 81.000 350.215 80.191 C 349.924 79.746,349.635 79.183,349.574 78.941 C 349.514 78.698,349.397 78.500,349.315 78.500 C 349.234 78.500,349.167 78.387,349.167 78.250 C 349.167 77.916,335.866 77.868,335.533 78.200 " stroke="none" fill="#8c8c8c" fill-rule="evenodd"></path><path id="path1" d="M7.500 13.750 L 7.500 14.667 9.625 14.668 L 11.750 14.669 12.125 15.220 C 12.331 15.523,12.500 15.860,12.500 15.969 C 12.500 16.078,12.572 16.167,12.659 16.167 C 12.747 16.167,12.867 16.429,12.928 16.750 C 12.988 17.071,13.104 17.333,13.185 17.333 C 13.267 17.333,13.333 17.446,13.333 17.583 C 13.333 17.721,13.403 17.833,13.489 17.833 C 14.015 17.833,14.010 17.591,14.106 43.500 C 14.189 65.758,14.104 71.387,13.676 71.907 C 13.596 72.004,13.478 72.440,13.413 72.875 C 13.349 73.310,13.235 73.667,13.161 73.667 C 13.087 73.667,12.979 73.873,12.922 74.125 C 12.864 74.377,12.611 74.883,12.359 75.250 L 11.901 75.917 9.701 75.963 L 7.500 76.010 7.500 76.982 L 7.500 77.955 32.572 77.933 C 46.362 77.921,57.702 77.854,57.773 77.783 C 57.908 77.647,57.957 75.714,58.095 64.875 L 58.181 58.167 57.358 58.167 C 56.450 58.167,56.333 58.292,56.333 59.264 C 56.333 59.577,56.267 59.833,56.186 59.833 C 56.104 59.833,55.987 60.171,55.925 60.584 C 55.863 60.997,55.705 61.541,55.574 61.793 C 55.443 62.044,55.289 62.494,55.232 62.792 C 55.176 63.090,55.069 63.333,54.995 63.333 C 54.921 63.333,54.810 63.558,54.750 63.833 C 54.690 64.108,54.577 64.333,54.500 64.333 C 54.423 64.333,54.310 64.558,54.250 64.833 C 54.190 65.108,54.080 65.333,54.007 65.333 C 53.934 65.333,53.775 65.577,53.655 65.875 C 53.535 66.173,53.338 66.477,53.218 66.550 C 53.098 66.623,53.000 66.759,53.000 66.851 C 53.000 66.943,52.775 67.258,52.501 67.551 C 52.226 67.844,52.001 68.135,52.001 68.198 C 51.999 68.436,49.987 70.301,49.054 70.929 C 48.520 71.289,48.046 71.624,48.000 71.674 C 47.954 71.724,47.467 71.985,46.917 72.255 C 46.367 72.526,45.878 72.798,45.832 72.860 C 45.785 72.923,45.541 73.025,45.290 73.088 C 45.039 73.151,44.833 73.262,44.833 73.335 C 44.833 73.407,44.458 73.557,44.000 73.667 C 43.542 73.777,43.167 73.926,43.167 73.998 C 43.167 74.070,42.904 74.179,42.583 74.239 C 42.262 74.299,42.000 74.410,42.000 74.486 C 42.000 74.562,41.625 74.673,41.167 74.734 C 40.708 74.795,40.333 74.908,40.333 74.986 C 40.333 75.063,39.452 75.220,38.375 75.334 C 37.298 75.448,36.338 75.604,36.241 75.681 C 36.144 75.758,34.832 75.871,33.324 75.932 C 31.346 76.013,30.509 76.109,30.315 76.277 C 30.107 76.457,29.552 76.500,27.898 76.463 L 25.750 76.417 25.667 48.500 L 25.583 20.583 25.188 19.500 C 24.970 18.904,24.732 18.351,24.659 18.271 C 24.586 18.191,24.563 18.029,24.609 17.909 C 24.691 17.695,24.464 17.155,24.102 16.707 C 23.551 16.024,22.496 15.000,22.343 15.000 C 22.246 15.000,22.167 14.925,22.167 14.833 C 22.167 14.724,26.972 14.667,36.250 14.667 C 44.806 14.667,50.333 14.727,50.333 14.821 C 50.333 14.907,50.427 15.075,50.542 15.196 C 50.656 15.318,50.960 15.726,51.217 16.104 C 51.836 17.017,52.573 17.833,52.778 17.833 C 53.044 17.833,54.039 19.325,53.942 19.578 C 53.893 19.705,53.961 19.899,54.093 20.008 C 54.225 20.118,54.333 20.311,54.333 20.437 C 54.333 20.563,54.396 20.667,54.472 20.667 C 54.549 20.667,54.942 21.154,55.346 21.750 C 55.750 22.346,56.138 22.833,56.207 22.833 C 56.276 22.833,56.333 22.942,56.333 23.075 C 56.333 23.208,56.435 23.377,56.559 23.450 C 56.683 23.523,56.876 23.758,56.989 23.972 C 57.650 25.231,58.269 25.367,58.065 24.208 C 57.916 23.363,57.924 19.738,58.085 15.458 L 58.183 12.833 32.841 12.833 L 7.500 12.833 7.500 13.750 M77.000 13.732 L 77.000 14.667 79.391 14.667 C 82.224 14.667,81.950 14.488,83.106 17.083 C 83.269 17.450,83.513 17.834,83.648 17.936 C 84.336 18.459,84.361 71.403,83.673 71.830 C 83.596 71.877,83.479 72.273,83.414 72.708 C 83.349 73.144,83.237 73.500,83.166 73.500 C 83.095 73.500,82.988 73.763,82.928 74.083 C 82.867 74.404,82.761 74.667,82.690 74.667 C 82.620 74.667,82.458 74.931,82.331 75.255 C 82.050 75.973,81.977 75.991,79.250 76.043 L 77.083 76.083 77.033 77.037 L 76.984 77.991 82.409 78.037 C 85.392 78.063,87.833 78.031,87.833 77.966 C 87.833 77.902,96.789 77.864,107.736 77.883 C 118.682 77.901,127.700 77.854,127.777 77.778 C 127.854 77.702,127.942 74.983,127.973 71.736 C 128.034 65.301,128.010 65.147,127.146 66.416 C 126.928 66.736,126.694 66.998,126.625 66.999 C 126.556 66.999,126.500 67.096,126.500 67.213 C 126.500 67.330,126.350 67.554,126.167 67.711 C 125.983 67.868,125.833 68.110,125.833 68.248 C 125.833 68.387,125.756 68.500,125.663 68.500 C 125.569 68.500,125.420 68.688,125.333 68.917 C 125.246 69.146,125.103 69.333,125.015 69.333 C 124.928 69.333,124.808 69.485,124.749 69.670 C 124.690 69.855,124.420 70.249,124.148 70.545 C 123.877 70.841,123.612 71.252,123.559 71.458 C 123.507 71.665,123.408 71.833,123.339 71.833 C 123.271 71.833,122.888 72.302,122.489 72.875 C 122.089 73.448,121.684 74.008,121.589 74.119 C 121.159 74.624,121.059 74.769,120.955 75.042 C 120.894 75.202,120.771 75.333,120.683 75.333 C 120.595 75.333,120.475 75.483,120.417 75.667 C 120.312 75.995,120.164 76.000,110.417 76.000 C 101.759 76.000,100.492 76.032,100.269 76.255 C 100.061 76.463,99.618 76.501,97.882 76.463 L 95.750 76.417 95.667 48.667 C 95.621 33.404,95.528 20.804,95.460 20.667 C 95.393 20.529,95.265 19.899,95.177 19.265 C 95.090 18.632,94.949 18.070,94.865 18.015 C 94.780 17.961,94.664 17.763,94.605 17.574 C 94.546 17.386,94.239 16.974,93.921 16.658 C 93.604 16.342,93.342 15.990,93.339 15.875 C 93.336 15.760,93.277 15.667,93.208 15.667 C 93.140 15.666,92.788 15.404,92.428 15.083 C 92.068 14.762,91.682 14.500,91.571 14.500 C 91.460 14.500,91.326 14.387,91.273 14.250 C 91.220 14.112,91.069 14.000,90.936 14.000 C 90.803 14.000,90.669 13.925,90.639 13.833 C 90.608 13.742,90.133 13.575,89.583 13.463 C 89.033 13.351,88.530 13.182,88.464 13.088 C 88.388 12.978,86.301 12.895,82.673 12.857 L 77.000 12.798 77.000 13.732 M146.833 13.750 L 146.833 14.667 149.213 14.667 C 151.322 14.667,151.620 14.701,151.838 14.973 C 152.297 15.545,152.806 16.600,152.922 17.218 C 152.988 17.572,153.134 17.833,153.265 17.833 C 153.391 17.833,153.540 18.040,153.596 18.292 C 153.949 19.867,153.939 19.847,154.917 20.903 C 155.192 21.201,155.750 21.843,156.157 22.331 C 156.970 23.306,157.348 23.739,158.289 24.773 C 158.634 25.152,159.179 25.778,159.500 26.164 C 159.821 26.550,160.308 27.113,160.583 27.415 C 160.858 27.717,161.399 28.329,161.784 28.774 C 162.169 29.219,162.856 29.996,163.311 30.500 C 163.765 31.004,164.375 31.717,164.666 32.083 C 165.623 33.291,165.590 33.503,165.500 26.694 L 165.416 20.417 164.936 19.333 C 164.672 18.737,164.464 18.040,164.472 17.784 C 164.481 17.517,164.384 17.278,164.244 17.225 C 164.110 17.173,164.000 17.031,164.000 16.910 C 164.000 16.788,163.587 16.276,163.083 15.772 C 162.579 15.268,162.167 14.813,162.167 14.761 C 162.167 14.709,164.567 14.667,167.500 14.667 L 172.833 14.667 172.833 13.750 L 172.833 12.833 159.833 12.833 L 146.833 12.833 146.833 13.750 M191.708 12.944 C 191.581 12.995,191.500 13.348,191.500 13.847 L 191.500 14.667 193.595 14.667 C 196.025 14.667,196.310 14.795,198.292 16.786 C 198.865 17.362,199.438 17.833,199.564 17.833 C 199.914 17.833,201.611 19.909,201.844 20.622 C 201.957 20.967,202.207 21.401,202.400 21.585 C 202.592 21.769,202.860 22.131,202.994 22.391 C 203.128 22.650,203.399 23.035,203.594 23.246 C 203.790 23.457,203.997 23.751,204.053 23.898 C 204.110 24.046,204.226 24.167,204.312 24.167 C 204.397 24.167,204.546 24.392,204.642 24.667 C 204.738 24.942,204.895 25.167,204.991 25.167 C 205.088 25.167,205.167 25.275,205.167 25.408 C 205.167 25.541,205.260 25.710,205.375 25.783 C 205.490 25.857,205.739 26.142,205.930 26.417 C 206.121 26.692,206.552 27.310,206.888 27.790 C 207.225 28.270,207.500 28.739,207.500 28.832 C 207.500 28.924,207.561 29.000,207.637 29.000 C 207.712 29.000,208.206 29.637,208.736 30.417 C 209.265 31.196,209.758 31.833,209.831 31.833 C 209.904 31.833,210.007 32.002,210.059 32.208 C 210.112 32.415,210.382 32.832,210.661 33.135 C 210.939 33.439,211.167 33.752,211.167 33.832 C 211.167 33.911,211.260 34.075,211.375 34.196 C 211.490 34.318,211.808 34.754,212.083 35.167 C 212.358 35.579,212.658 36.008,212.750 36.119 C 212.842 36.231,212.995 36.418,213.092 36.536 C 213.188 36.654,213.317 36.881,213.378 37.042 C 213.439 37.202,213.567 37.333,213.661 37.333 C 213.756 37.333,213.833 37.432,213.833 37.552 C 213.833 37.672,213.968 37.916,214.133 38.094 C 214.298 38.271,214.484 38.548,214.545 38.708 C 214.606 38.869,214.734 39.000,214.828 39.000 C 214.923 39.000,215.000 39.097,215.000 39.216 C 215.000 39.436,215.346 39.951,215.875 40.520 C 216.035 40.692,216.167 40.874,216.167 40.923 C 216.167 41.010,216.827 41.994,217.000 42.167 C 217.047 42.212,217.309 42.587,217.584 43.000 C 217.859 43.413,218.140 43.775,218.208 43.806 C 218.277 43.836,218.333 43.970,218.333 44.102 C 218.333 44.235,218.446 44.387,218.583 44.440 C 218.721 44.492,218.833 44.636,218.833 44.760 C 218.833 44.883,218.929 45.043,219.045 45.117 C 219.162 45.190,219.348 45.456,219.458 45.708 C 219.569 45.960,219.736 46.167,219.830 46.167 C 219.923 46.167,220.000 46.282,220.000 46.422 C 220.000 46.562,220.106 46.718,220.235 46.767 C 220.364 46.817,220.516 47.040,220.571 47.262 C 220.627 47.485,220.747 47.667,220.837 47.667 C 220.926 47.667,221.000 47.750,221.000 47.853 C 221.000 48.039,222.063 49.602,222.403 49.917 C 222.502 50.008,222.696 50.308,222.833 50.583 C 222.970 50.858,223.120 51.121,223.166 51.167 C 223.417 51.416,224.000 52.344,224.000 52.493 C 224.000 52.589,224.070 52.667,224.155 52.667 C 224.241 52.667,224.358 52.816,224.416 52.999 C 224.474 53.182,224.613 53.426,224.725 53.541 C 224.837 53.656,225.111 54.050,225.333 54.417 C 225.556 54.783,225.834 55.182,225.952 55.304 C 226.070 55.425,226.167 55.623,226.167 55.744 C 226.167 55.865,226.279 56.008,226.417 56.060 C 226.554 56.113,226.667 56.260,226.667 56.386 C 226.667 56.512,226.815 56.796,226.997 57.016 C 227.179 57.236,227.389 57.492,227.464 57.583 C 227.539 57.675,227.650 57.881,227.712 58.042 C 227.773 58.202,227.900 58.333,227.995 58.333 C 228.089 58.333,228.167 58.427,228.167 58.542 C 228.167 58.656,228.467 59.182,228.834 59.710 C 229.200 60.238,229.500 60.744,229.500 60.835 C 229.500 60.926,229.579 61.000,229.675 61.000 C 229.772 61.000,229.929 61.225,230.025 61.500 C 230.121 61.775,230.267 62.000,230.350 62.000 C 230.432 62.000,230.500 62.083,230.500 62.184 C 230.500 62.286,230.711 62.642,230.969 62.976 C 231.228 63.310,231.654 63.958,231.917 64.417 C 232.180 64.875,232.475 65.341,232.572 65.453 C 232.982 65.920,233.106 66.099,233.212 66.375 C 233.273 66.535,233.400 66.667,233.495 66.667 C 233.589 66.667,233.667 66.760,233.668 66.875 C 233.669 66.990,233.854 67.458,234.080 67.917 C 234.305 68.375,234.492 68.844,234.495 68.958 C 234.498 69.073,234.572 69.167,234.659 69.167 C 234.747 69.167,234.867 69.429,234.928 69.750 C 234.988 70.071,235.094 70.333,235.162 70.333 C 235.231 70.333,235.384 70.802,235.501 71.375 C 235.618 71.948,235.778 72.488,235.857 72.575 C 236.047 72.785,236.042 75.167,235.851 75.167 C 235.770 75.167,235.656 75.354,235.598 75.583 C 235.495 75.993,235.466 76.000,233.830 76.000 L 232.167 76.000 232.167 77.000 L 232.167 78.000 244.550 77.890 C 251.932 77.824,257.042 77.841,257.203 77.931 C 257.352 78.015,258.323 78.046,259.362 78.000 L 261.250 77.917 261.301 77.206 C 261.384 76.064,261.233 76.000,258.449 76.000 C 256.591 76.000,255.997 75.947,255.848 75.767 C 255.741 75.639,255.526 75.568,255.368 75.609 C 254.892 75.734,251.919 72.546,250.138 70.000 C 249.183 68.635,247.431 66.050,243.122 59.645 C 239.566 54.361,238.099 52.198,237.880 51.917 C 237.808 51.825,237.341 51.150,236.842 50.417 C 235.916 49.059,235.270 48.123,234.279 46.708 C 233.974 46.273,233.363 45.392,232.920 44.750 C 232.478 44.108,231.595 42.851,230.957 41.956 C 229.750 40.260,229.592 39.645,230.297 39.376 C 230.667 39.235,231.011 38.891,231.507 38.167 C 231.726 37.846,231.983 37.492,232.078 37.381 C 232.512 36.870,232.607 36.731,232.712 36.458 C 232.773 36.298,232.895 36.167,232.984 36.167 C 233.072 36.167,233.189 36.026,233.244 35.853 C 233.298 35.681,233.472 35.388,233.630 35.202 C 233.788 35.016,234.029 34.700,234.167 34.500 C 234.304 34.300,234.585 33.936,234.791 33.693 C 234.998 33.449,235.166 33.162,235.166 33.056 C 235.167 32.949,235.232 32.836,235.312 32.806 C 235.491 32.737,237.167 30.529,237.167 30.362 C 237.167 30.295,237.317 30.112,237.500 29.955 C 237.683 29.798,237.833 29.557,237.833 29.418 C 237.833 29.280,237.911 29.167,238.005 29.167 C 238.100 29.167,238.225 29.041,238.284 28.888 C 238.343 28.734,238.528 28.472,238.696 28.304 C 238.863 28.137,239.000 27.887,239.000 27.750 C 239.000 27.612,239.064 27.500,239.143 27.500 C 239.221 27.500,239.612 27.031,240.011 26.458 C 240.411 25.885,240.816 25.326,240.911 25.214 C 241.341 24.709,241.441 24.565,241.545 24.292 C 241.606 24.131,241.724 24.000,241.808 24.000 C 241.891 24.000,242.053 23.775,242.167 23.500 C 242.281 23.225,242.440 23.000,242.520 23.000 C 242.601 23.000,242.667 22.904,242.667 22.787 C 242.667 22.670,242.798 22.453,242.958 22.306 C 243.349 21.947,243.833 21.297,243.833 21.133 C 243.833 21.060,243.965 20.855,244.125 20.679 C 244.731 20.011,244.856 19.812,245.097 19.128 C 245.242 18.718,245.707 18.066,246.214 17.563 C 247.212 16.574,247.500 16.235,247.500 16.049 C 247.500 15.976,247.669 15.717,247.875 15.474 C 248.081 15.230,248.362 14.867,248.500 14.667 C 248.637 14.466,248.881 14.148,249.042 13.959 C 249.202 13.770,249.333 13.440,249.333 13.224 L 249.333 12.833 244.917 12.833 L 240.500 12.833 240.500 17.655 C 240.500 21.718,240.461 22.515,240.250 22.726 C 240.112 22.864,240.000 23.053,240.000 23.146 C 240.000 23.240,239.906 23.377,239.792 23.450 C 239.543 23.609,238.938 24.466,238.786 24.875 C 238.726 25.035,238.605 25.167,238.516 25.167 C 238.428 25.167,238.308 25.318,238.249 25.503 C 238.190 25.688,237.922 26.080,237.654 26.374 C 237.385 26.669,237.122 27.046,237.069 27.212 C 237.016 27.378,236.789 27.717,236.565 27.965 C 236.205 28.363,235.431 29.397,234.667 30.503 C 234.529 30.702,234.288 31.016,234.130 31.202 C 233.972 31.388,233.798 31.681,233.744 31.853 C 233.689 32.026,233.572 32.167,233.484 32.167 C 233.395 32.167,233.273 32.298,233.212 32.458 C 233.152 32.619,233.023 32.835,232.926 32.940 C 232.829 33.044,232.624 33.307,232.470 33.523 C 230.991 35.599,230.487 36.286,230.287 36.500 C 230.159 36.637,230.007 36.881,229.949 37.042 C 229.891 37.202,229.766 37.333,229.672 37.333 C 229.577 37.333,229.498 37.540,229.495 37.792 C 229.489 38.267,229.161 38.833,228.892 38.833 C 228.807 38.833,228.277 38.140,227.714 37.292 C 227.151 36.444,225.699 34.287,224.487 32.500 C 219.461 25.087,218.766 24.020,218.086 22.667 C 216.849 20.205,216.346 17.309,216.999 16.417 C 217.066 16.325,217.174 16.025,217.240 15.750 C 217.463 14.815,217.741 14.667,219.276 14.667 L 220.667 14.667 220.667 13.750 L 220.667 12.833 206.292 12.846 C 198.385 12.854,191.823 12.897,191.708 12.944 M280.000 13.750 L 280.000 14.667 282.308 14.667 C 284.668 14.667,285.167 14.805,285.167 15.458 C 285.167 15.557,285.223 15.664,285.292 15.694 C 285.464 15.771,285.966 16.819,286.096 17.375 C 286.155 17.627,286.261 17.833,286.331 17.833 C 286.516 17.833,286.875 18.765,286.875 19.245 C 286.875 19.469,287.072 19.874,287.313 20.144 C 287.553 20.415,288.012 20.951,288.333 21.337 C 288.654 21.723,289.179 22.321,289.500 22.667 C 289.821 23.012,290.346 23.611,290.667 23.998 C 290.987 24.385,291.400 24.871,291.583 25.078 C 291.767 25.284,292.329 25.924,292.833 26.499 C 293.337 27.074,293.986 27.791,294.274 28.093 C 294.562 28.395,295.012 28.925,295.274 29.271 C 295.536 29.617,296.069 30.221,296.458 30.613 C 296.848 31.004,297.167 31.373,297.167 31.432 C 297.167 31.569,298.427 32.833,298.564 32.833 C 298.740 32.833,298.674 22.476,298.490 21.343 C 298.394 20.753,298.161 19.853,297.972 19.343 C 297.783 18.834,297.626 18.210,297.624 17.958 C 297.621 17.706,297.560 17.500,297.487 17.500 C 297.415 17.500,297.307 17.346,297.247 17.157 C 297.187 16.969,296.695 16.354,296.152 15.791 C 295.610 15.229,295.167 14.745,295.167 14.717 C 295.167 14.690,297.604 14.667,300.583 14.667 L 306.000 14.667 306.000 13.750 L 306.000 12.833 293.000 12.833 L 280.000 12.833 280.000 13.750 M324.667 13.732 L 324.667 14.667 327.130 14.667 C 329.274 14.667,329.624 14.705,329.838 14.959 C 330.205 15.397,331.000 17.047,331.000 17.372 C 331.000 17.527,331.145 17.733,331.323 17.828 C 331.711 18.036,332.009 19.525,331.684 19.633 C 331.535 19.683,331.540 19.764,331.701 19.958 C 331.991 20.308,332.023 70.610,331.733 70.798 C 331.632 70.863,331.496 71.327,331.431 71.829 C 331.365 72.331,331.253 72.819,331.182 72.913 C 331.110 73.006,330.955 73.440,330.838 73.875 C 330.720 74.310,330.558 74.667,330.478 74.667 C 330.399 74.667,330.333 74.768,330.333 74.891 C 330.333 75.743,329.668 76.000,327.467 76.000 C 324.793 76.000,324.833 75.983,324.833 77.103 L 324.833 78.003 337.833 77.960 L 350.833 77.917 350.833 76.958 L 350.833 76.000 349.768 76.000 C 348.974 76.000,348.678 76.064,348.606 76.250 C 348.422 76.730,346.429 76.589,345.939 76.060 C 345.311 75.383,344.649 73.909,344.190 72.167 L 343.773 70.583 343.709 59.277 L 343.644 47.970 345.530 48.074 C 347.969 48.209,348.803 48.316,348.923 48.510 C 348.976 48.596,349.451 48.667,349.979 48.667 C 351.039 48.667,352.823 48.954,353.083 49.167 C 353.175 49.242,353.531 49.356,353.875 49.420 C 354.219 49.485,354.500 49.596,354.500 49.669 C 354.500 49.741,354.706 49.885,354.958 49.989 C 355.545 50.230,356.144 50.577,356.381 50.814 C 356.483 50.916,356.730 51.000,356.929 51.000 C 357.774 51.000,360.423 54.368,360.240 55.208 C 360.181 55.477,360.211 55.667,360.313 55.667 C 360.407 55.667,360.534 55.929,360.594 56.250 C 360.655 56.571,360.764 56.833,360.837 56.833 C 360.911 56.833,361.021 57.133,361.083 57.500 C 361.145 57.867,361.252 58.167,361.321 58.167 C 361.390 58.167,361.542 58.710,361.659 59.375 C 361.776 60.040,361.931 60.658,362.004 60.750 C 362.076 60.842,362.189 61.274,362.254 61.710 C 362.319 62.147,362.436 62.544,362.514 62.592 C 362.593 62.641,362.706 63.052,362.767 63.507 C 362.827 63.961,362.935 64.333,363.006 64.333 C 363.078 64.333,363.225 64.858,363.333 65.500 C 363.442 66.142,363.589 66.667,363.660 66.667 C 363.732 66.667,363.837 66.957,363.894 67.311 C 363.951 67.666,364.110 68.172,364.247 68.436 C 364.385 68.700,364.498 69.048,364.499 69.208 C 364.500 69.369,364.565 69.500,364.645 69.500 C 364.725 69.500,364.885 69.837,365.000 70.250 C 365.115 70.662,365.267 71.000,365.337 71.000 C 365.407 71.000,365.515 71.205,365.578 71.457 C 365.642 71.708,365.743 71.952,365.805 71.998 C 365.866 72.045,366.103 72.440,366.330 72.875 C 366.557 73.310,366.803 73.667,366.876 73.667 C 366.949 73.667,367.079 73.852,367.165 74.078 C 367.251 74.304,367.642 74.715,368.035 74.991 C 368.428 75.268,368.842 75.572,368.955 75.667 C 369.068 75.763,369.525 75.910,369.970 75.994 C 370.415 76.079,371.073 76.260,371.431 76.397 C 374.360 77.518,386.458 78.565,387.257 77.767 C 387.995 77.028,387.297 76.080,385.889 75.910 C 385.354 75.845,384.842 75.737,384.750 75.670 C 384.658 75.603,384.218 75.459,383.773 75.350 C 383.327 75.241,382.850 75.040,382.713 74.904 C 382.571 74.762,382.329 74.699,382.146 74.756 C 380.813 75.180,377.702 71.075,376.773 67.667 C 376.294 65.913,375.156 62.081,375.015 61.750 C 374.937 61.567,374.659 60.854,374.397 60.167 C 374.135 59.479,373.425 57.927,372.819 56.717 C 372.048 55.179,371.769 54.464,371.891 54.342 C 372.014 54.219,372.007 54.167,371.867 54.167 C 371.757 54.167,371.667 54.066,371.667 53.942 C 371.667 53.819,371.517 53.583,371.333 53.417 C 371.150 53.251,371.000 53.014,371.000 52.891 C 371.000 52.768,370.938 52.667,370.862 52.667 C 370.785 52.667,370.481 52.329,370.185 51.917 C 369.888 51.504,369.533 51.167,369.394 51.167 C 369.256 51.167,368.606 50.747,367.951 50.235 C 367.296 49.722,366.477 49.158,366.130 48.981 C 365.784 48.805,365.500 48.603,365.500 48.535 C 365.500 48.214,363.115 47.348,362.135 47.314 C 361.832 47.303,361.715 47.260,361.875 47.218 C 362.035 47.177,362.167 47.087,362.167 47.020 C 362.167 46.952,362.842 46.802,363.667 46.685 C 364.492 46.568,365.167 46.412,365.167 46.338 C 365.167 46.265,365.504 46.154,365.917 46.092 C 366.329 46.030,366.667 45.909,366.667 45.823 C 366.667 45.737,366.814 45.667,366.994 45.667 C 367.174 45.667,367.568 45.452,367.869 45.190 C 368.170 44.927,368.679 44.581,369.000 44.419 C 374.691 41.550,377.739 33.741,376.004 26.476 C 375.748 25.405,375.720 25.066,375.879 24.953 C 376.040 24.839,376.039 24.790,375.875 24.723 C 375.760 24.677,375.667 24.506,375.667 24.344 C 375.667 23.510,373.270 20.500,372.605 20.500 C 372.471 20.500,372.330 20.406,372.292 20.292 C 372.242 20.144,371.746 20.083,370.583 20.083 C 369.420 20.083,368.924 20.144,368.875 20.292 C 368.837 20.406,368.718 20.500,368.611 20.500 C 368.105 20.501,366.000 22.730,366.000 23.266 C 366.000 23.395,365.933 23.500,365.852 23.500 C 365.770 23.500,365.651 23.781,365.587 24.125 C 365.523 24.469,365.410 24.825,365.337 24.917 C 365.050 25.277,364.833 28.051,364.833 31.360 C 364.833 33.270,364.769 34.833,364.691 34.833 C 364.613 34.833,364.499 35.486,364.438 36.284 C 364.376 37.082,364.263 37.776,364.186 37.826 C 364.109 37.876,363.994 38.273,363.930 38.708 C 363.865 39.144,363.757 39.500,363.688 39.500 C 363.619 39.500,363.467 39.875,363.349 40.333 C 363.232 40.792,363.069 41.167,362.988 41.167 C 362.906 41.167,362.793 41.354,362.735 41.583 C 362.678 41.813,362.561 42.000,362.477 42.000 C 362.392 42.000,362.273 42.129,362.213 42.286 C 362.004 42.832,359.888 44.742,359.285 44.930 C 359.082 44.993,358.875 45.109,358.825 45.187 C 358.709 45.366,357.154 45.667,356.344 45.667 C 356.008 45.667,355.662 45.735,355.575 45.819 C 355.488 45.903,353.842 46.024,351.917 46.088 C 349.269 46.177,348.351 46.263,348.148 46.441 C 347.940 46.624,347.409 46.667,345.814 46.630 L 343.750 46.583 343.649 34.000 C 343.579 25.163,343.490 21.193,343.352 20.667 C 343.244 20.254,343.122 19.591,343.081 19.192 C 343.005 18.450,342.559 17.574,341.879 16.833 C 341.668 16.604,341.457 16.294,341.410 16.144 C 341.362 15.994,341.007 15.657,340.620 15.395 C 340.233 15.132,339.857 14.824,339.783 14.709 C 339.710 14.594,339.548 14.500,339.422 14.500 C 339.297 14.500,339.169 14.441,339.139 14.368 C 339.026 14.099,337.896 13.524,337.250 13.407 C 336.883 13.340,336.530 13.202,336.464 13.101 C 336.383 12.974,334.528 12.898,330.506 12.857 L 324.667 12.798 324.667 13.732 M153.964 52.308 C 153.930 65.547,153.864 70.849,153.731 71.016 C 153.629 71.145,153.498 71.617,153.439 72.067 C 153.381 72.516,153.266 72.966,153.184 73.067 C 153.102 73.167,152.940 73.569,152.824 73.958 C 152.709 74.348,152.551 74.667,152.474 74.667 C 152.396 74.667,152.333 74.749,152.333 74.849 C 152.333 75.683,151.721 75.914,149.277 76.000 L 146.917 76.083 146.867 77.039 L 146.817 77.994 159.825 77.955 L 172.833 77.917 172.833 76.958 L 172.833 76.000 171.604 76.000 C 170.704 76.000,170.317 76.068,170.163 76.255 C 169.989 76.464,169.563 76.501,167.767 76.463 L 165.583 76.417 165.500 61.805 L 165.417 47.194 163.500 44.910 C 161.078 42.023,159.875 40.604,159.287 39.940 C 159.032 39.652,158.778 39.208,158.723 38.952 C 158.668 38.697,158.501 38.397,158.353 38.286 C 158.205 38.174,157.871 37.770,157.611 37.387 C 157.351 37.005,157.032 36.651,156.903 36.601 C 156.773 36.551,156.667 36.423,156.667 36.316 C 156.667 36.209,156.497 35.963,156.289 35.769 C 156.081 35.575,155.687 35.117,155.415 34.750 C 154.829 33.962,154.678 33.839,154.297 33.836 C 154.029 33.833,154.008 34.977,153.964 52.308 M287.167 51.573 C 287.167 61.331,287.103 69.353,287.024 69.402 C 286.946 69.450,286.832 70.030,286.771 70.691 C 286.709 71.351,286.598 71.972,286.524 72.071 C 286.449 72.169,286.296 72.681,286.182 73.208 C 286.069 73.735,285.912 74.167,285.835 74.167 C 285.757 74.167,285.645 74.385,285.586 74.653 C 285.528 74.920,285.372 75.180,285.240 75.231 C 285.108 75.281,285.000 75.430,285.000 75.560 C 285.000 75.938,284.612 76.000,282.236 76.000 L 280.000 76.000 280.000 76.996 L 280.000 77.992 293.007 77.954 L 306.014 77.917 305.965 77.000 L 305.917 76.083 304.704 76.034 C 303.774 75.997,303.430 76.046,303.229 76.247 C 303.012 76.464,302.597 76.502,300.858 76.463 L 298.750 76.417 298.667 61.884 L 298.583 47.352 297.150 45.634 C 296.362 44.690,294.805 42.832,293.692 41.505 C 292.578 40.179,291.667 38.958,291.667 38.791 C 291.667 38.625,291.442 38.269,291.167 38.000 C 290.892 37.731,290.667 37.440,290.667 37.354 C 290.667 37.267,290.460 37.020,290.208 36.804 C 289.956 36.588,289.534 36.094,289.269 35.706 C 289.004 35.318,288.729 35.000,288.658 35.000 C 288.586 35.000,288.365 34.737,288.167 34.417 C 287.957 34.078,287.672 33.833,287.486 33.833 C 287.173 33.833,287.167 34.196,287.167 51.573 M48.483 37.506 C 48.080 37.784,47.375 38.267,46.917 38.578 C 46.458 38.890,45.918 39.300,45.715 39.489 C 45.513 39.679,45.302 39.833,45.246 39.833 C 45.108 39.833,43.930 40.719,43.861 40.875 C 43.831 40.944,43.716 41.000,43.606 41.000 C 43.497 41.000,43.287 41.131,43.139 41.292 C 42.743 41.722,42.124 42.167,41.920 42.167 C 41.821 42.167,41.623 42.298,41.480 42.458 C 41.336 42.619,41.076 42.846,40.901 42.963 C 37.056 45.541,36.939 45.684,38.083 46.408 C 38.496 46.668,38.833 46.946,38.833 47.024 C 38.833 47.103,38.929 47.167,39.046 47.167 C 39.163 47.167,39.388 47.317,39.545 47.500 C 39.702 47.683,39.943 47.833,40.082 47.833 C 40.220 47.833,40.333 47.901,40.333 47.984 C 40.333 48.067,40.742 48.405,41.241 48.737 C 41.740 49.068,42.256 49.447,42.387 49.578 C 42.518 49.709,42.766 49.806,42.938 49.793 C 43.109 49.781,44.578 50.757,46.202 51.963 C 47.826 53.168,49.186 54.101,49.224 54.036 C 49.382 53.768,49.532 37.000,49.377 37.000 C 49.289 37.000,48.887 37.228,48.483 37.506 M202.494 66.208 C 202.300 66.415,201.909 66.940,201.626 67.375 C 201.342 67.810,201.048 68.167,200.972 68.167 C 200.896 68.167,200.833 68.268,200.833 68.391 C 200.833 68.514,200.683 68.751,200.500 68.917 C 200.317 69.083,200.167 69.319,200.167 69.442 C 200.167 69.566,200.090 69.667,199.996 69.667 C 199.902 69.667,199.754 69.854,199.667 70.083 C 199.580 70.313,199.433 70.500,199.341 70.500 C 199.248 70.500,199.127 70.682,199.071 70.905 C 199.016 71.127,198.864 71.350,198.735 71.399 C 198.606 71.449,198.500 71.604,198.500 71.745 C 198.500 71.885,198.437 72.000,198.361 72.000 C 198.284 72.000,197.891 72.487,197.487 73.083 C 197.083 73.679,196.696 74.167,196.626 74.167 C 196.557 74.167,196.500 74.250,196.500 74.351 C 196.500 74.510,196.277 74.828,195.497 75.785 C 195.407 75.895,195.333 76.047,195.333 76.123 C 195.333 76.198,195.183 76.388,195.000 76.545 C 194.817 76.702,194.667 76.935,194.667 77.064 C 194.667 77.192,194.554 77.341,194.417 77.394 C 194.279 77.446,194.167 77.617,194.167 77.772 C 194.167 78.034,194.589 78.046,200.042 77.944 C 203.273 77.883,207.142 77.834,208.640 77.834 L 211.364 77.833 211.057 77.336 C 210.888 77.063,210.112 75.957,209.333 74.879 C 207.218 71.951,207.006 71.617,207.003 71.207 C 207.001 71.000,206.850 70.702,206.667 70.545 C 206.483 70.388,206.333 70.161,206.333 70.041 C 206.333 69.921,206.221 69.780,206.083 69.727 C 205.946 69.674,205.833 69.542,205.833 69.433 C 205.833 69.212,205.404 68.603,204.958 68.194 C 204.798 68.047,204.667 67.842,204.667 67.739 C 204.667 67.636,204.517 67.416,204.333 67.250 C 204.150 67.084,204.000 66.855,204.000 66.742 C 204.000 66.629,203.887 66.492,203.750 66.440 C 203.612 66.387,203.500 66.229,203.500 66.089 C 203.500 65.708,202.897 65.779,202.494 66.208 M60.333 96.936 C 60.196 96.988,59.847 97.136,59.558 97.265 C 59.269 97.394,58.951 97.500,58.850 97.500 C 58.749 97.500,58.667 97.575,58.667 97.667 C 58.667 97.758,58.558 97.833,58.425 97.833 C 58.292 97.833,58.123 97.929,58.050 98.046 C 57.977 98.162,57.701 98.395,57.438 98.563 C 57.175 98.730,56.924 99.004,56.880 99.172 C 56.836 99.340,56.695 99.517,56.567 99.567 C 56.438 99.616,56.333 99.771,56.333 99.911 C 56.333 100.052,56.260 100.167,56.170 100.167 C 56.080 100.167,55.956 100.373,55.894 100.625 C 55.832 100.877,55.700 101.137,55.599 101.202 C 55.329 101.378,55.352 105.752,55.625 106.025 C 55.740 106.140,55.833 106.371,55.833 106.539 C 55.833 106.706,55.946 106.887,56.083 106.940 C 56.221 106.992,56.333 107.125,56.333 107.234 C 56.333 107.567,57.131 108.511,58.005 109.212 C 58.408 109.536,59.760 110.167,60.050 110.167 C 60.195 110.167,60.360 110.242,60.417 110.333 C 60.475 110.427,61.276 110.500,62.250 110.500 C 63.224 110.500,64.025 110.427,64.083 110.333 C 64.140 110.242,64.305 110.167,64.450 110.167 C 65.638 110.167,68.217 107.853,68.134 106.861 C 68.059 105.959,66.626 105.859,66.404 106.740 C 66.349 106.961,65.991 107.354,65.610 107.612 C 65.229 107.871,64.878 108.133,64.832 108.195 C 64.785 108.256,64.522 108.362,64.248 108.429 C 63.974 108.496,63.703 108.623,63.645 108.711 C 63.465 108.985,61.140 108.904,60.583 108.605 C 60.308 108.457,59.990 108.335,59.875 108.334 C 59.760 108.334,59.667 108.258,59.667 108.167 C 59.667 108.075,59.565 108.000,59.441 108.000 C 59.121 108.000,57.721 106.601,57.576 106.137 C 57.509 105.924,57.388 105.707,57.307 105.654 C 57.225 105.602,57.089 105.133,57.005 104.613 C 56.846 103.635,57.029 101.858,57.307 101.679 C 57.388 101.626,57.508 101.415,57.572 101.208 C 57.636 101.002,57.759 100.833,57.845 100.833 C 57.930 100.833,58.000 100.753,58.000 100.654 C 58.000 100.421,58.921 99.500,59.154 99.500 C 59.253 99.500,59.333 99.439,59.333 99.365 C 59.333 98.684,63.907 98.137,64.125 98.792 C 64.163 98.906,64.339 99.000,64.516 99.000 C 64.692 99.000,64.965 99.150,65.122 99.333 C 65.279 99.517,65.487 99.667,65.584 99.667 C 65.680 99.667,65.870 99.827,66.005 100.024 C 67.036 101.525,68.167 101.635,68.167 100.233 C 68.167 99.807,66.682 98.144,66.125 97.947 C 65.965 97.890,65.833 97.766,65.833 97.672 C 65.833 97.577,65.740 97.500,65.625 97.499 C 65.510 97.498,65.192 97.373,64.917 97.220 C 64.412 96.939,60.905 96.722,60.333 96.936 M81.917 96.939 C 81.733 96.985,81.347 97.130,81.058 97.261 C 80.769 97.393,80.451 97.500,80.350 97.500 C 80.249 97.500,80.167 97.575,80.167 97.667 C 80.167 97.758,80.083 97.833,79.982 97.833 C 79.792 97.833,79.182 98.338,78.692 98.899 C 78.541 99.072,78.285 99.333,78.125 99.478 C 77.965 99.622,77.833 99.837,77.833 99.954 C 77.833 100.071,77.764 100.167,77.680 100.167 C 77.596 100.167,77.474 100.410,77.409 100.708 C 77.344 101.006,77.207 101.303,77.104 101.369 C 76.850 101.530,76.849 105.529,77.102 105.849 C 77.204 105.978,77.337 106.290,77.397 106.542 C 77.457 106.794,77.580 107.000,77.670 107.000 C 77.760 107.000,77.833 107.111,77.833 107.246 C 77.833 107.616,79.715 109.464,80.223 109.591 C 80.467 109.653,80.667 109.766,80.667 109.844 C 80.667 109.921,80.930 110.034,81.252 110.095 C 81.574 110.155,81.878 110.271,81.928 110.352 C 82.049 110.548,85.453 110.544,85.574 110.348 C 85.626 110.264,85.968 110.145,86.334 110.083 C 86.700 110.021,87.000 109.907,87.000 109.830 C 87.000 109.752,87.157 109.639,87.350 109.578 C 88.068 109.350,89.667 107.733,89.667 107.234 C 89.667 107.125,89.779 106.992,89.917 106.940 C 90.054 106.887,90.167 106.698,90.167 106.519 C 90.167 106.341,90.260 106.163,90.375 106.125 C 90.650 106.033,90.674 101.381,90.401 101.202 C 90.300 101.137,90.172 100.896,90.115 100.667 C 89.981 100.121,89.195 99.164,87.986 98.072 C 87.841 97.941,87.635 97.833,87.528 97.833 C 87.421 97.833,87.333 97.766,87.333 97.685 C 87.333 97.603,87.128 97.485,86.877 97.422 C 86.626 97.358,86.366 97.219,86.299 97.112 C 86.176 96.912,82.588 96.771,81.917 96.939 M104.333 96.936 C 104.196 96.988,103.847 97.136,103.558 97.265 C 103.269 97.394,102.951 97.500,102.850 97.500 C 102.749 97.500,102.667 97.575,102.667 97.667 C 102.667 97.758,102.583 97.833,102.482 97.833 C 102.147 97.833,100.333 99.614,100.333 99.942 C 100.333 100.066,100.258 100.167,100.167 100.167 C 100.075 100.167,100.000 100.260,99.999 100.375 C 99.998 100.490,99.871 100.808,99.715 101.083 C 99.078 102.211,99.469 107.000,100.199 107.000 C 100.273 107.000,100.333 107.118,100.333 107.263 C 100.333 107.640,102.206 109.462,102.728 109.593 C 102.969 109.653,103.167 109.766,103.167 109.844 C 103.167 109.921,103.430 110.034,103.752 110.095 C 104.074 110.155,104.378 110.271,104.428 110.352 C 104.549 110.548,107.953 110.544,108.074 110.348 C 108.126 110.264,108.468 110.145,108.834 110.083 C 109.200 110.021,109.500 109.902,109.500 109.819 C 109.500 109.735,109.613 109.667,109.752 109.667 C 109.890 109.667,110.132 109.517,110.289 109.333 C 110.446 109.150,110.649 109.000,110.741 109.000 C 110.991 109.000,111.999 107.813,112.103 107.396 C 112.400 106.213,111.152 105.585,110.558 106.620 C 110.408 106.880,110.030 107.278,109.716 107.505 C 109.403 107.731,109.048 108.007,108.927 108.117 C 108.806 108.227,108.492 108.370,108.228 108.434 C 107.965 108.499,107.703 108.623,107.645 108.711 C 107.499 108.934,105.012 108.912,104.785 108.685 C 104.683 108.583,104.476 108.500,104.326 108.500 C 104.175 108.500,103.878 108.350,103.667 108.167 C 103.455 107.983,103.220 107.833,103.144 107.833 C 102.913 107.833,101.933 106.782,101.667 106.250 C 101.530 105.975,101.347 105.699,101.261 105.637 C 100.603 105.165,101.270 100.667,101.998 100.667 C 102.091 100.667,102.167 100.571,102.167 100.454 C 102.167 100.233,102.741 99.667,102.965 99.667 C 103.035 99.667,103.221 99.517,103.378 99.333 C 103.535 99.150,103.808 99.000,103.984 99.000 C 104.161 99.000,104.337 98.906,104.375 98.792 C 104.425 98.642,104.954 98.583,106.250 98.583 C 107.546 98.583,108.075 98.642,108.125 98.792 C 108.163 98.906,108.323 99.000,108.480 99.000 C 108.904 99.000,110.084 99.981,110.662 100.813 C 111.206 101.597,112.167 101.211,112.167 100.209 C 112.167 99.780,112.090 99.666,111.212 98.788 C 110.391 97.967,110.225 97.833,110.028 97.833 C 109.921 97.833,109.833 97.758,109.833 97.667 C 109.833 97.575,109.740 97.500,109.625 97.499 C 109.510 97.498,109.192 97.373,108.917 97.220 C 108.412 96.939,104.905 96.722,104.333 96.936 M120.833 103.676 L 120.833 110.518 121.625 110.467 L 122.417 110.417 122.507 107.833 C 122.556 106.412,122.612 105.342,122.632 105.455 C 122.651 105.568,122.849 105.706,123.071 105.762 C 123.294 105.818,123.516 105.969,123.566 106.098 C 123.616 106.228,123.771 106.333,123.911 106.333 C 124.052 106.333,124.167 106.390,124.167 106.459 C 124.167 106.529,124.410 106.693,124.708 106.824 C 125.006 106.955,125.341 107.142,125.453 107.240 C 125.976 107.697,126.134 107.800,126.471 107.908 C 126.670 107.971,126.833 108.092,126.833 108.178 C 126.833 108.263,126.905 108.333,126.993 108.333 C 127.146 108.333,128.202 108.981,128.618 109.331 C 128.729 109.424,128.886 109.500,128.967 109.500 C 129.049 109.500,129.289 109.650,129.500 109.833 C 129.711 110.017,129.985 110.167,130.109 110.167 C 130.232 110.167,130.333 110.242,130.333 110.333 C 130.333 110.588,131.325 110.532,131.595 110.262 C 132.004 109.853,131.892 109.185,131.375 108.958 C 131.123 108.848,130.857 108.662,130.783 108.545 C 130.710 108.429,130.541 108.333,130.408 108.333 C 130.275 108.333,130.167 108.260,130.167 108.170 C 130.167 108.080,129.979 107.959,129.750 107.902 C 129.521 107.844,129.333 107.739,129.333 107.669 C 129.333 107.598,129.090 107.442,128.792 107.322 C 128.494 107.201,128.190 107.005,128.117 106.885 C 128.043 106.765,127.875 106.667,127.742 106.667 C 127.609 106.667,127.500 106.609,127.500 106.540 C 127.500 106.409,127.373 106.330,126.236 105.750 C 125.877 105.567,125.492 105.342,125.381 105.250 C 124.891 104.847,124.722 104.733,124.263 104.499 C 123.313 104.013,123.167 103.920,123.167 103.794 C 123.167 103.724,123.237 103.667,123.324 103.667 C 123.479 103.667,125.671 102.352,125.833 102.162 C 125.879 102.108,126.160 101.966,126.458 101.845 C 126.756 101.725,127.000 101.560,127.000 101.480 C 127.000 101.399,127.115 101.333,127.255 101.333 C 127.396 101.333,127.552 101.225,127.602 101.094 C 127.653 100.962,127.913 100.806,128.181 100.747 C 128.448 100.688,128.667 100.569,128.667 100.483 C 128.667 100.396,128.843 100.258,129.059 100.176 C 129.482 100.015,131.196 99.000,131.333 98.830 C 131.379 98.772,131.548 98.677,131.708 98.618 C 132.303 98.399,131.845 97.000,131.178 97.000 C 130.904 97.000,129.823 97.625,129.286 98.094 C 129.174 98.191,128.840 98.378,128.542 98.509 C 128.244 98.641,128.000 98.805,128.000 98.874 C 128.000 98.943,127.885 99.000,127.745 99.000 C 127.604 99.000,127.448 99.108,127.398 99.240 C 127.347 99.372,127.087 99.528,126.819 99.586 C 126.552 99.645,126.333 99.757,126.333 99.835 C 126.333 99.914,126.169 100.030,125.968 100.094 C 125.767 100.157,125.242 100.462,124.803 100.771 C 124.363 101.080,123.928 101.333,123.835 101.333 C 123.742 101.333,123.667 101.408,123.667 101.500 C 123.667 101.592,123.552 101.667,123.411 101.667 C 123.271 101.667,123.113 101.779,123.060 101.917 C 122.687 102.889,122.500 102.083,122.500 99.500 L 122.500 96.833 121.667 96.833 L 120.833 96.833 120.833 103.676 M140.333 97.498 L 140.333 98.167 142.500 98.167 L 144.667 98.167 144.667 104.095 C 144.667 110.658,144.640 110.500,145.738 110.500 L 146.333 110.500 146.333 104.333 L 146.333 98.167 148.593 98.167 L 150.853 98.167 150.802 97.542 L 150.750 96.917 145.542 96.873 L 140.333 96.829 140.333 97.498 M164.994 97.042 C 164.991 97.156,164.844 97.550,164.667 97.917 C 164.490 98.283,164.342 98.677,164.339 98.792 C 164.336 98.906,164.264 99.000,164.180 99.000 C 164.096 99.000,163.977 99.225,163.917 99.500 C 163.856 99.775,163.748 100.000,163.675 100.000 C 163.603 100.000,163.445 100.356,163.326 100.792 C 163.206 101.227,163.065 101.621,163.012 101.667 C 162.798 101.853,161.500 104.688,161.500 104.969 C 161.500 105.078,161.425 105.167,161.333 105.167 C 161.242 105.167,161.164 105.260,161.161 105.375 C 161.158 105.490,161.010 105.883,160.833 106.250 C 160.656 106.617,160.509 107.010,160.506 107.125 C 160.503 107.240,160.437 107.333,160.360 107.333 C 160.283 107.333,160.124 107.652,160.008 108.042 C 159.892 108.431,159.730 108.792,159.650 108.842 C 159.569 108.893,159.454 109.287,159.395 109.717 L 159.288 110.500 160.069 110.500 C 160.816 110.500,160.861 110.472,161.102 109.875 C 161.241 109.531,161.462 109.014,161.594 108.725 C 161.726 108.436,161.833 108.149,161.833 108.088 C 161.833 107.571,162.347 107.500,166.068 107.500 L 169.827 107.500 169.932 107.917 C 169.989 108.146,170.103 108.333,170.185 108.333 C 170.266 108.333,170.333 108.406,170.333 108.495 C 170.333 109.400,171.205 110.500,171.922 110.500 C 172.767 110.500,172.930 110.028,172.419 109.055 C 172.033 108.320,171.500 107.037,171.500 106.842 C 171.500 106.746,171.431 106.667,171.347 106.667 C 171.262 106.667,171.144 106.442,171.083 106.167 C 171.023 105.892,170.913 105.667,170.838 105.667 C 170.764 105.667,170.652 105.463,170.589 105.214 C 170.527 104.965,170.331 104.444,170.154 104.057 C 169.978 103.669,169.833 103.273,169.833 103.176 C 169.833 103.079,169.766 103.000,169.685 103.000 C 169.603 103.000,169.489 102.813,169.432 102.583 C 169.374 102.354,169.257 102.167,169.171 102.167 C 169.085 102.167,168.966 101.904,168.906 101.583 C 168.845 101.263,168.739 101.000,168.670 101.000 C 168.600 101.000,168.449 100.662,168.333 100.250 C 168.218 99.837,168.064 99.500,167.992 99.500 C 167.919 99.500,167.810 99.275,167.750 99.000 C 167.690 98.725,167.575 98.500,167.494 98.500 C 167.414 98.500,167.299 98.237,167.239 97.917 C 167.179 97.596,167.063 97.333,166.981 97.333 C 166.900 97.333,166.833 97.221,166.833 97.083 C 166.833 96.756,165.003 96.715,164.994 97.042 M181.409 97.042 C 181.365 97.157,181.349 100.213,181.373 103.834 L 181.417 110.417 182.125 110.468 L 182.833 110.519 182.833 103.676 L 182.833 96.833 182.161 96.833 C 181.777 96.833,181.455 96.923,181.409 97.042 M191.000 103.541 C 191.000 108.550,191.051 110.318,191.200 110.467 C 191.346 110.613,192.682 110.667,196.168 110.667 C 201.485 110.667,201.566 110.651,201.471 109.659 L 201.417 109.083 197.044 109.039 L 192.671 108.994 192.627 102.956 L 192.583 96.917 191.792 96.866 L 191.000 96.815 191.000 103.541 M222.247 97.030 C 222.201 97.151,222.182 100.213,222.206 103.834 L 222.250 110.417 223.000 110.417 L 223.750 110.417 223.796 108.042 L 223.842 105.667 225.741 105.667 C 227.714 105.667,228.167 105.740,228.167 106.057 C 228.167 106.337,229.035 108.000,229.181 108.000 C 229.250 108.000,229.356 108.225,229.417 108.500 C 229.477 108.775,229.586 109.000,229.660 109.000 C 229.733 109.000,229.893 109.244,230.014 109.542 C 230.403 110.492,231.830 110.971,232.109 110.244 C 232.204 109.996,231.543 108.473,231.292 108.361 C 231.223 108.331,231.167 108.211,231.167 108.095 C 231.167 107.979,231.017 107.711,230.833 107.500 C 230.650 107.289,230.500 107.015,230.500 106.891 C 230.500 106.768,230.425 106.667,230.333 106.667 C 230.242 106.667,230.167 106.566,230.167 106.442 C 230.167 106.319,230.017 106.045,229.833 105.833 C 229.401 105.335,229.413 105.225,229.913 105.099 C 230.509 104.950,231.433 103.960,231.670 103.219 C 231.782 102.870,231.940 102.512,232.020 102.425 C 232.212 102.218,232.211 100.047,232.019 99.928 C 231.938 99.878,231.821 99.570,231.760 99.243 C 231.698 98.916,231.540 98.608,231.407 98.557 C 231.275 98.506,231.167 98.360,231.167 98.232 C 231.167 98.104,231.103 98.000,231.026 98.000 C 230.948 98.000,230.711 97.850,230.500 97.667 C 230.289 97.483,230.021 97.333,229.905 97.333 C 229.789 97.333,229.663 97.240,229.625 97.125 C 229.521 96.811,222.367 96.719,222.247 97.030 M240.708 96.942 C 240.547 97.009,240.500 98.514,240.500 103.677 L 240.500 110.327 240.875 110.419 C 241.081 110.469,243.425 110.489,246.083 110.463 L 250.917 110.417 250.917 109.750 L 250.917 109.083 246.542 109.039 L 242.167 108.994 242.167 106.750 L 242.167 104.506 246.292 104.461 L 250.417 104.417 250.417 103.667 L 250.417 102.917 246.292 102.872 L 242.167 102.828 242.167 100.497 L 242.167 98.167 246.593 98.167 L 251.020 98.167 250.968 97.542 L 250.917 96.917 245.917 96.887 C 243.167 96.871,240.823 96.896,240.708 96.942 M263.903 97.142 C 262.409 97.695,260.465 99.334,260.240 100.231 C 260.180 100.471,260.068 100.667,259.992 100.667 C 259.916 100.667,259.803 101.004,259.741 101.417 C 259.679 101.829,259.562 102.167,259.481 102.167 C 259.285 102.167,259.290 105.120,259.485 105.241 C 259.569 105.293,259.688 105.635,259.750 106.001 C 259.812 106.367,259.926 106.667,260.003 106.667 C 260.081 106.667,260.194 106.825,260.256 107.018 C 260.508 107.812,262.396 109.667,262.953 109.667 C 263.070 109.667,263.167 109.738,263.167 109.826 C 263.167 109.913,263.430 110.034,263.752 110.095 C 264.074 110.155,264.378 110.271,264.428 110.352 C 264.555 110.558,268.122 110.540,268.250 110.333 C 268.307 110.242,268.480 110.164,268.635 110.161 C 269.426 110.145,271.089 108.930,272.125 107.612 C 272.423 107.234,272.388 106.390,272.070 106.268 C 271.658 106.110,270.833 106.149,270.833 106.327 C 270.833 106.547,269.643 107.743,269.289 107.879 C 269.130 107.940,269.000 108.061,269.000 108.148 C 269.000 108.235,268.756 108.360,268.458 108.424 C 268.160 108.489,267.871 108.614,267.815 108.702 C 267.680 108.912,264.993 108.922,264.856 108.713 C 264.798 108.624,264.535 108.499,264.272 108.434 C 264.008 108.370,263.698 108.227,263.582 108.117 C 263.465 108.007,263.165 107.767,262.914 107.583 C 262.664 107.400,262.408 107.212,262.346 107.167 C 262.122 107.000,261.333 105.517,261.333 105.262 C 261.333 105.118,261.258 105.000,261.167 105.000 C 261.069 105.000,261.000 104.444,261.000 103.667 C 261.000 102.931,261.071 102.333,261.159 102.333 C 261.247 102.333,261.367 102.071,261.428 101.750 C 261.488 101.429,261.591 101.167,261.657 101.167 C 261.723 101.167,261.883 100.963,262.014 100.713 C 262.322 100.122,262.719 99.725,263.135 99.593 C 263.319 99.535,263.511 99.378,263.563 99.244 C 263.614 99.110,263.802 99.000,263.981 99.000 C 264.159 99.000,264.337 98.906,264.375 98.792 C 264.425 98.641,264.970 98.583,266.333 98.583 C 267.696 98.583,268.242 98.641,268.292 98.792 C 268.330 98.906,268.507 99.000,268.686 99.000 C 268.864 99.000,269.054 99.112,269.106 99.250 C 269.159 99.388,269.298 99.500,269.415 99.500 C 269.656 99.500,270.833 100.746,270.833 101.000 C 270.833 101.255,271.826 101.198,272.095 100.929 C 272.483 100.541,272.375 99.888,271.833 99.333 C 271.558 99.052,271.333 98.749,271.333 98.661 C 271.333 98.572,271.238 98.500,271.120 98.500 C 271.003 98.500,270.779 98.350,270.622 98.167 C 270.465 97.983,270.230 97.833,270.099 97.833 C 269.968 97.833,269.836 97.777,269.806 97.708 C 269.451 96.910,265.542 96.535,263.903 97.142 M280.778 96.944 C 280.639 97.083,280.629 109.876,280.768 110.236 C 280.839 110.421,281.087 110.500,281.601 110.500 L 282.333 110.500 282.333 103.667 L 282.333 96.833 281.611 96.833 C 281.214 96.833,280.839 96.883,280.778 96.944 M290.500 103.655 L 290.500 110.500 291.095 110.500 C 292.084 110.500,292.167 110.295,292.167 107.845 L 292.167 105.667 294.667 105.667 C 296.042 105.667,297.167 105.607,297.167 105.535 C 297.167 105.462,297.487 105.317,297.878 105.212 C 298.695 104.994,299.706 104.072,299.999 103.279 C 300.107 102.988,300.263 102.620,300.347 102.461 C 300.555 102.067,300.543 100.000,300.333 100.000 C 300.242 100.000,300.167 99.845,300.167 99.656 C 300.167 99.185,299.877 98.679,299.265 98.079 C 298.076 96.915,298.104 96.922,294.125 96.863 L 290.500 96.810 290.500 103.655 M308.833 103.667 L 308.833 110.500 314.000 110.500 L 319.167 110.500 319.167 109.750 L 319.167 109.000 314.833 109.000 L 310.500 109.000 310.500 106.750 L 310.500 104.500 314.566 104.500 C 318.975 104.500,318.833 104.531,318.833 103.576 C 318.833 102.903,318.410 102.833,314.344 102.833 L 310.500 102.833 310.500 100.500 L 310.500 98.167 314.833 98.167 L 319.167 98.167 319.167 97.500 L 319.167 96.833 314.000 96.833 L 308.833 96.833 308.833 103.667 M330.500 96.942 C 329.479 97.278,328.000 98.608,328.000 99.190 C 328.000 99.360,327.925 99.500,327.833 99.500 C 327.738 99.500,327.667 100.000,327.667 100.667 C 327.667 101.308,327.736 101.833,327.820 101.833 C 327.904 101.833,328.019 102.040,328.075 102.292 C 328.183 102.774,328.991 103.408,329.740 103.596 C 329.976 103.655,330.208 103.765,330.254 103.840 C 330.301 103.915,330.769 104.029,331.294 104.092 C 331.820 104.156,332.325 104.264,332.417 104.333 C 332.508 104.402,332.940 104.510,333.375 104.573 C 333.810 104.636,334.167 104.747,334.167 104.819 C 334.167 104.892,334.402 105.019,334.689 105.102 C 336.088 105.503,336.037 107.987,334.621 108.429 C 334.417 108.493,334.197 108.628,334.132 108.729 C 333.937 109.034,331.511 108.956,330.809 108.623 C 330.025 108.250,329.167 107.269,329.167 106.744 C 329.167 106.368,329.103 106.333,328.417 106.333 L 327.667 106.333 327.667 107.173 C 327.667 108.237,327.956 108.712,329.288 109.834 C 329.401 109.929,329.739 110.055,330.038 110.113 C 330.338 110.171,330.630 110.290,330.687 110.377 C 330.826 110.587,334.505 110.592,334.643 110.382 C 334.702 110.292,334.955 110.168,335.205 110.107 C 335.683 109.990,336.548 109.213,337.042 108.458 C 337.370 107.956,337.476 105.167,337.167 105.167 C 337.075 105.167,337.000 105.069,337.000 104.951 C 337.000 104.832,336.773 104.550,336.495 104.326 C 336.217 104.101,335.888 103.827,335.765 103.717 C 335.641 103.607,335.344 103.467,335.103 103.407 C 334.863 103.347,334.667 103.239,334.667 103.168 C 334.667 103.097,334.242 102.985,333.723 102.921 C 333.204 102.856,332.660 102.743,332.515 102.670 C 332.369 102.597,331.816 102.457,331.287 102.360 C 330.055 102.133,329.333 101.482,329.333 100.596 C 329.333 100.268,329.407 100.000,329.497 100.000 C 329.587 100.000,329.704 99.827,329.757 99.616 C 330.173 97.958,335.231 98.231,335.334 99.917 C 335.350 100.188,336.134 100.688,336.250 100.500 C 336.307 100.408,336.508 100.333,336.698 100.333 C 337.086 100.333,337.077 99.101,336.686 98.642 C 336.009 97.846,335.666 97.499,335.550 97.494 C 335.476 97.491,335.117 97.344,334.750 97.167 C 334.105 96.855,331.226 96.703,330.500 96.942 M227.736 98.311 C 227.785 98.390,228.124 98.495,228.490 98.544 C 229.162 98.634,230.167 99.479,230.167 99.954 C 230.167 100.071,230.242 100.167,230.333 100.167 C 230.426 100.167,230.500 100.611,230.500 101.167 C 230.500 101.717,230.430 102.167,230.344 102.167 C 230.258 102.167,230.093 102.429,229.977 102.750 C 229.861 103.071,229.674 103.333,229.562 103.333 C 229.449 103.333,229.226 103.465,229.066 103.625 C 228.820 103.871,228.388 103.925,226.304 103.970 L 223.833 104.024 223.833 101.095 L 223.833 98.167 225.740 98.167 C 226.789 98.167,227.687 98.232,227.736 98.311 M296.000 98.333 C 296.000 98.425,296.220 98.500,296.488 98.500 C 297.643 98.500,298.835 99.923,298.834 101.299 C 298.833 102.054,298.788 102.137,297.777 103.227 L 297.138 103.917 294.652 103.970 L 292.167 104.024 292.167 101.095 L 292.167 98.167 294.083 98.167 C 295.250 98.167,296.000 98.232,296.000 98.333 M85.789 98.851 C 86.212 99.044,86.650 99.288,86.761 99.393 C 86.872 99.498,87.159 99.725,87.398 99.898 C 88.047 100.368,88.828 101.749,88.947 102.635 C 89.004 103.065,89.133 103.473,89.234 103.542 C 89.366 103.632,89.366 103.701,89.234 103.792 C 89.133 103.860,89.002 104.288,88.941 104.741 C 88.880 105.194,88.766 105.607,88.688 105.658 C 88.609 105.708,88.489 105.930,88.420 106.150 C 88.270 106.630,86.899 108.000,86.568 108.000 C 86.439 108.000,86.333 108.074,86.333 108.163 C 86.333 108.253,86.127 108.376,85.875 108.436 C 85.623 108.497,85.319 108.623,85.200 108.717 C 84.928 108.932,82.496 108.927,82.355 108.711 C 82.297 108.623,82.035 108.499,81.772 108.434 C 81.508 108.370,81.194 108.227,81.073 108.117 C 80.952 108.007,80.593 107.729,80.276 107.500 C 79.958 107.271,79.560 106.826,79.391 106.512 C 79.222 106.198,78.980 105.838,78.854 105.711 C 77.545 104.401,79.395 99.576,81.398 99.073 C 81.637 99.013,81.833 98.902,81.833 98.827 C 81.833 98.378,84.788 98.395,85.789 98.851 M166.167 99.750 C 166.167 99.888,166.242 100.000,166.333 100.000 C 166.425 100.000,166.500 100.080,166.500 100.177 C 166.500 100.275,166.688 100.765,166.917 101.266 C 167.146 101.767,167.333 102.249,167.333 102.338 C 167.333 102.427,167.402 102.500,167.487 102.500 C 167.571 102.500,167.690 102.725,167.750 103.000 C 167.810 103.275,167.921 103.500,167.995 103.500 C 168.069 103.500,168.178 103.757,168.237 104.071 C 168.296 104.385,168.400 104.667,168.468 104.696 C 168.536 104.726,168.715 105.069,168.866 105.458 L 169.140 106.167 165.983 106.167 L 162.827 106.167 162.939 105.708 C 163.001 105.456,163.109 105.212,163.179 105.165 C 163.249 105.118,163.358 104.874,163.422 104.623 C 163.485 104.372,163.603 104.167,163.685 104.167 C 163.766 104.167,163.836 104.073,163.839 103.958 C 163.842 103.844,163.990 103.450,164.167 103.083 C 164.344 102.717,164.491 102.323,164.494 102.208 C 164.497 102.094,164.569 102.000,164.654 102.000 C 164.738 102.000,164.897 101.730,165.005 101.401 C 165.114 101.071,165.307 100.602,165.434 100.359 C 165.561 100.116,165.665 99.823,165.666 99.708 C 165.666 99.594,165.779 99.500,165.917 99.500 C 166.054 99.500,166.167 99.612,166.167 99.750 " stroke="none" fill="#fbfbfb" fill-rule="evenodd"></path><path id="path2" d="M58.068 20.833 C 58.068 22.346,58.093 22.965,58.124 22.208 C 58.155 21.452,58.155 20.215,58.124 19.458 C 58.093 18.702,58.068 19.321,58.068 20.833 M298.742 26.917 C 298.742 30.125,298.764 31.414,298.791 29.781 C 298.819 28.148,298.819 25.523,298.791 23.948 C 298.764 22.372,298.742 23.708,298.742 26.917 M343.748 34.500 L 343.750 46.417 345.875 46.424 L 348.001 46.432 345.918 46.378 L 343.836 46.323 343.791 34.453 L 343.747 22.583 343.748 34.500 M376.372 27.667 C 376.372 27.988,376.406 28.119,376.448 27.958 C 376.490 27.798,376.490 27.535,376.448 27.375 C 376.406 27.215,376.372 27.346,376.372 27.667 M376.565 30.750 C 376.565 31.942,376.592 32.407,376.624 31.785 C 376.656 31.162,376.656 30.187,376.623 29.618 C 376.591 29.049,376.564 29.558,376.565 30.750 M376.372 33.667 C 376.372 33.987,376.406 34.119,376.448 33.958 C 376.490 33.798,376.490 33.535,376.448 33.375 C 376.406 33.215,376.372 33.346,376.372 33.667 M371.991 42.458 L 371.417 43.083 372.042 42.509 C 372.623 41.974,372.743 41.833,372.616 41.833 C 372.588 41.833,372.307 42.115,371.991 42.458 M298.667 61.641 L 298.750 76.250 300.875 76.258 L 303.001 76.266 300.917 76.211 L 298.833 76.157 298.833 61.672 C 298.833 53.705,298.777 47.152,298.708 47.109 C 298.640 47.067,298.621 53.606,298.667 61.641 M343.743 48.375 C 343.699 48.490,343.684 52.708,343.708 57.750 L 343.753 66.917 343.793 57.633 L 343.833 48.350 344.792 48.290 L 345.750 48.230 344.786 48.198 C 344.144 48.177,343.796 48.236,343.743 48.375 M343.883 69.000 C 343.883 69.504,343.915 69.710,343.953 69.458 C 343.991 69.206,343.991 68.794,343.953 68.542 C 343.915 68.290,343.883 68.496,343.883 69.000 M58.038 74.705 L 58.000 77.827 54.208 77.875 L 50.417 77.923 54.214 77.962 C 57.178 77.992,58.028 77.953,58.093 77.786 C 58.138 77.668,58.152 76.225,58.125 74.578 L 58.075 71.583 58.038 74.705 M252.667 73.052 C 252.667 73.081,252.910 73.325,253.208 73.594 L 253.750 74.083 253.260 73.542 C 252.804 73.037,252.667 72.923,252.667 73.052 M98.000 76.167 L 95.750 76.265 97.948 76.299 C 99.273 76.320,100.188 76.267,100.250 76.167 C 100.307 76.075,100.330 76.015,100.302 76.034 C 100.273 76.053,99.237 76.113,98.000 76.167 M26.882 76.290 C 27.504 76.323,28.479 76.322,29.049 76.290 C 29.618 76.257,29.108 76.231,27.917 76.231 C 26.725 76.232,26.259 76.258,26.882 76.290 M166.708 76.290 C 167.327 76.322,168.340 76.322,168.958 76.290 C 169.577 76.258,169.071 76.232,167.833 76.232 C 166.596 76.232,166.090 76.258,166.708 76.290 M346.788 76.287 C 347.084 76.324,347.609 76.324,347.955 76.288 C 348.300 76.252,348.058 76.222,347.417 76.221 C 346.775 76.221,346.492 76.250,346.788 76.287 M127.856 77.280 C 127.839 77.688,127.747 77.827,127.458 77.882 L 127.083 77.955 127.464 77.977 C 127.892 78.003,128.062 77.710,127.953 77.137 C 127.895 76.836,127.874 76.868,127.856 77.280 M21.053 77.958 C 22.777 77.985,25.552 77.985,27.219 77.958 C 28.886 77.931,27.475 77.909,24.083 77.909 C 20.692 77.909,19.328 77.931,21.053 77.958 M91.053 77.958 C 92.777 77.985,95.552 77.985,97.219 77.958 C 98.886 77.931,97.475 77.909,94.083 77.909 C 90.692 77.909,89.328 77.931,91.053 77.958 M160.886 77.958 C 162.611 77.985,165.386 77.985,167.053 77.958 C 168.719 77.931,167.308 77.909,163.917 77.909 C 160.525 77.909,159.161 77.931,160.886 77.958 M204.542 77.958 C 205.802 77.986,207.865 77.986,209.125 77.958 C 210.385 77.930,209.354 77.906,206.833 77.906 C 204.313 77.906,203.281 77.930,204.542 77.958 M244.803 77.958 C 247.124 77.984,250.874 77.984,253.137 77.958 C 255.399 77.932,253.500 77.911,248.917 77.911 C 244.333 77.911,242.482 77.932,244.803 77.958 M294.053 77.958 C 295.777 77.985,298.552 77.985,300.219 77.958 C 301.886 77.931,300.475 77.909,297.083 77.909 C 293.692 77.909,292.328 77.931,294.053 77.958 M339.042 77.958 C 340.852 77.985,343.815 77.985,345.625 77.958 C 347.435 77.931,345.954 77.909,342.333 77.909 C 338.712 77.909,337.231 77.931,339.042 77.958 M379.875 77.957 C 380.677 77.988,381.990 77.988,382.792 77.957 C 383.594 77.927,382.938 77.902,381.333 77.902 C 379.729 77.902,379.073 77.927,379.875 77.957 " stroke="none" fill="#bcbcbc" fill-rule="evenodd"></path><path id="path3" d="M49.333 49.867 C 49.287 52.315,49.308 54.259,49.378 54.189 C 49.448 54.119,49.486 52.116,49.461 49.739 L 49.416 45.417 49.333 49.867 M346.121 48.287 C 346.417 48.324,346.942 48.324,347.288 48.288 C 347.634 48.252,347.392 48.222,346.750 48.221 C 346.108 48.221,345.825 48.250,346.121 48.287 M343.709 67.417 C 343.711 67.783,343.745 67.914,343.785 67.706 C 343.824 67.499,343.823 67.199,343.781 67.040 C 343.739 66.880,343.707 67.050,343.709 67.417 M253.917 74.500 C 254.275 74.867,254.605 75.167,254.651 75.167 C 254.697 75.167,254.441 74.867,254.083 74.500 C 253.725 74.133,253.395 73.833,253.349 73.833 C 253.303 73.833,253.559 74.133,253.917 74.500 " stroke="none" fill="#c4c4c4" fill-rule="evenodd"></path><path id="path4" d="M216.709 18.417 C 216.711 18.783,216.745 18.914,216.785 18.706 C 216.824 18.499,216.823 18.199,216.781 18.040 C 216.739 17.880,216.707 18.050,216.709 18.417 M57.899 20.417 C 57.899 21.700,57.926 22.203,57.957 21.534 C 57.989 20.866,57.989 19.816,57.957 19.201 C 57.925 18.586,57.899 19.133,57.899 20.417 M298.268 20.250 C 298.405 20.863,298.501 20.996,298.497 20.569 C 298.496 20.394,298.419 20.137,298.326 20.000 C 298.202 19.817,298.187 19.885,298.268 20.250 M217.262 20.833 C 217.324 21.063,217.443 21.363,217.528 21.500 C 217.635 21.674,217.649 21.623,217.571 21.333 C 217.510 21.104,217.390 20.804,217.305 20.667 C 217.198 20.493,217.185 20.544,217.262 20.833 M95.550 21.667 C 95.550 22.171,95.581 22.377,95.619 22.125 C 95.658 21.873,95.658 21.460,95.619 21.208 C 95.581 20.956,95.550 21.162,95.550 21.667 M165.575 27.083 C 165.575 30.200,165.597 31.451,165.625 29.864 C 165.652 28.277,165.652 25.727,165.625 24.198 C 165.597 22.668,165.575 23.967,165.575 27.083 M343.545 22.167 C 343.545 22.579,343.578 22.748,343.618 22.542 C 343.657 22.335,343.657 21.998,343.618 21.792 C 343.578 21.585,343.545 21.754,343.545 22.167 M25.749 49.208 L 25.750 76.417 27.903 76.464 C 29.087 76.489,30.115 76.452,30.187 76.380 C 30.259 76.309,29.309 76.273,28.076 76.301 L 25.834 76.351 25.791 49.176 L 25.748 22.000 25.749 49.208 M95.749 49.583 L 95.750 76.417 98.000 76.425 L 100.250 76.432 98.042 76.378 L 95.834 76.324 95.791 49.537 L 95.748 22.750 95.749 49.583 M375.862 25.833 C 375.870 26.266,376.133 26.978,376.138 26.583 C 376.141 26.400,376.079 26.100,376.000 25.917 C 375.912 25.712,375.859 25.680,375.862 25.833 M376.398 30.750 C 376.398 31.942,376.425 32.407,376.457 31.785 C 376.489 31.162,376.489 30.187,376.457 29.618 C 376.424 29.049,376.398 29.558,376.398 30.750 M293.667 41.552 C 293.667 41.581,293.910 41.825,294.208 42.094 L 294.750 42.583 294.260 42.042 C 293.804 41.537,293.667 41.423,293.667 41.552 M162.000 43.219 C 162.000 43.248,162.244 43.491,162.542 43.760 L 163.083 44.250 162.594 43.708 C 162.138 43.203,162.000 43.090,162.000 43.219 M297.167 45.719 C 297.167 45.748,297.410 45.991,297.708 46.260 L 298.250 46.750 297.760 46.208 C 297.304 45.703,297.167 45.590,297.167 45.719 M344.882 46.624 C 345.504 46.656,346.479 46.656,347.049 46.623 C 347.618 46.591,347.108 46.564,345.917 46.565 C 344.725 46.565,344.259 46.592,344.882 46.624 M165.582 61.833 L 165.583 76.417 167.750 76.424 L 169.917 76.431 167.793 76.377 L 165.668 76.324 165.625 61.787 L 165.581 47.250 165.582 61.833 M344.042 48.119 C 344.294 48.158,344.706 48.158,344.958 48.119 C 345.210 48.081,345.004 48.050,344.500 48.050 C 343.996 48.050,343.790 48.081,344.042 48.119 M367.417 49.774 C 368.265 50.527,368.578 50.746,368.251 50.360 C 368.069 50.145,367.770 49.892,367.585 49.797 C 367.401 49.703,367.325 49.692,367.417 49.774 M46.000 51.894 C 46.000 51.940,46.225 52.138,46.500 52.333 C 46.775 52.529,47.000 52.652,47.000 52.606 C 47.000 52.560,46.775 52.362,46.500 52.167 C 46.225 51.971,46.000 51.848,46.000 51.894 M359.968 54.417 C 360.053 54.600,360.163 54.862,360.214 55.000 C 360.294 55.216,360.309 55.215,360.320 54.990 C 360.327 54.847,360.217 54.585,360.074 54.407 C 359.819 54.089,359.817 54.089,359.968 54.417 M343.705 68.500 C 343.705 68.821,343.740 68.952,343.782 68.792 C 343.823 68.631,343.823 68.369,343.782 68.208 C 343.740 68.048,343.705 68.179,343.705 68.500 M250.807 70.958 C 250.988 71.210,251.410 71.717,251.745 72.083 C 252.082 72.452,251.964 72.247,251.481 71.625 C 250.618 70.514,250.167 70.069,250.807 70.958 M57.879 72.333 C 57.879 72.746,57.911 72.915,57.951 72.708 C 57.991 72.502,57.991 72.165,57.951 71.958 C 57.911 71.752,57.879 71.921,57.879 72.333 M379.750 73.167 C 380.201 73.625,380.608 74.000,380.654 74.000 C 380.700 74.000,380.368 73.625,379.917 73.167 C 379.465 72.708,379.058 72.333,379.013 72.333 C 378.967 72.333,379.299 72.708,379.750 73.167 M57.883 74.167 C 57.883 74.671,57.915 74.877,57.953 74.625 C 57.991 74.373,57.991 73.960,57.953 73.708 C 57.915 73.456,57.883 73.662,57.883 74.167 M299.882 76.457 C 300.504 76.489,301.479 76.489,302.049 76.457 C 302.618 76.424,302.108 76.398,300.917 76.398 C 299.725 76.398,299.259 76.425,299.882 76.457 M346.788 76.454 C 347.084 76.490,347.609 76.491,347.955 76.455 C 348.300 76.419,348.058 76.389,347.417 76.388 C 346.775 76.387,346.492 76.417,346.788 76.454 M57.879 77.167 C 57.879 77.579,57.911 77.748,57.951 77.542 C 57.991 77.335,57.991 76.998,57.951 76.792 C 57.911 76.585,57.879 76.754,57.879 77.167 M376.044 77.620 C 376.297 77.658,376.672 77.657,376.877 77.617 C 377.082 77.578,376.875 77.546,376.417 77.548 C 375.958 77.549,375.791 77.581,376.044 77.620 M377.960 77.785 C 378.168 77.824,378.468 77.823,378.627 77.781 C 378.786 77.739,378.617 77.707,378.250 77.709 C 377.883 77.711,377.753 77.745,377.960 77.785 " stroke="none" fill="#dcdcdc" fill-rule="evenodd"></path></g></svg>